<?xml version="1.0" encoding="utf-8"?>
<!-- Generator: Adobe Illustrator 21.0.0, SVG Export Plug-In . SVG Version: 6.00 Build 0)  -->
<svg version="1.1" xmlns="http://www.w3.org/2000/svg" xmlns:xlink="http://www.w3.org/1999/xlink" x="0px" y="0px"
	 viewBox="0 0 1366 768" style="enable-background:new 0 0 1366 768;" xml:space="preserve">
<style type="text/css">
	.st0{opacity:0;fill:#262F3D;enable-background:new    ;}
	.st1{fill:#0477BD;}
	.st2{fill:#1C2C3B;}
	.st3{opacity:0.4;fill:#1C2C3B;enable-background:new    ;}
	.st4{fill:#E0BF35;}
	.st5{fill:#C8E8F8;}
	.st6{fill:none;stroke:#FFFFFF;stroke-miterlimit:10;}
	.st7{opacity:0.4;}
	.st8{fill:#F37422;}
	.st9{fill:none;}
	.st10{fill:#124B90;}
	.st11{fill:#258DCC;}
	.st12{clip-path:url(#SVGID_2_);fill:#E85749;}
</style>
<g id="Layer_1">
	<g>
		<ellipse class="st0" cx="241.8" cy="627.2" rx="135.2" ry="34.8"/>
		<g>
			<g>
				<g>
					<rect x="220.5" y="514.7" class="st1" width="12.4" height="112.1"/>
					<path class="st2" d="M232.9,628h-12.4c-0.7,0-1.2-0.5-1.2-1.2V514.7c0-0.7,0.5-1.2,1.2-1.2h12.4c0.7,0,1.2,0.5,1.2,1.2v112.1
						C234.1,627.5,233.5,628,232.9,628z M221.7,625.6h10V515.8h-10V625.6z"/>
				</g>
				<rect x="227.3" y="514.7" class="st3" width="5.6" height="112.1"/>
				<g>
					<path class="st2" d="M191.5,629.8H233v-4.2h-39.2c-1.3,0-2.3,1-2.3,2.3V629.8z"/>
					<path class="st2" d="M233,630.9h-41.5c-0.7,0-1.2-0.5-1.2-1.2v-2.1c0-1.8,1.5-3.3,3.3-3.3H233c0.7,0,1.2,0.5,1.2,1.2v4.2
						C234.2,630.4,233.7,630.9,233,630.9z M192.7,628.6h39.2v-1.9h-38.2c-0.5,0-0.9,0.4-0.9,0.9v1H192.7z"/>
				</g>
			</g>
			<g>
				<g>
					<rect x="247.4" y="514.7" class="st1" width="12.4" height="112.1"/>
					<path class="st2" d="M259.8,628h-12.4c-0.7,0-1.2-0.5-1.2-1.2V514.7c0-0.7,0.5-1.2,1.2-1.2h12.4c0.7,0,1.2,0.5,1.2,1.2v112.1
						C261,627.5,260.5,628,259.8,628z M248.7,625.6h10V515.8h-10L248.7,625.6L248.7,625.6z"/>
				</g>
				<g>
					<path class="st2" d="M288.9,629.8h-41.5v-4.2h39.2c1.3,0,2.3,1,2.3,2.3V629.8z"/>
					<path class="st2" d="M288.9,630.9h-41.5c-0.7,0-1.2-0.5-1.2-1.2v-4.2c0-0.7,0.5-1.2,1.2-1.2h39.4c1.8,0,3.3,1.5,3.3,3.3v2.1
						C290.1,630.4,289.5,630.9,288.9,630.9z M248.5,628.6h39.2v-0.9c0-0.5-0.4-0.9-0.9-0.9h-38.2v1.8H248.5z"/>
				</g>
			</g>
		</g>
		<g>
			<path class="st1" d="M247.6,522c-2.4,0.5-4.8,0.7-7.4,0.7c-14.9,0-26.9-8.5-26.9-18.9s12.1-18.9,26.9-18.9s26.9,8.5,26.9,18.9
				c0,5-2.8,9.6-7.4,13"/>
			<path class="st2" d="M240.2,523.9c-7.4,0-14.4-2-19.7-5.8c-5.4-3.8-8.4-8.9-8.4-14.4s3-10.6,8.4-14.4c5.3-3.7,12.3-5.8,19.7-5.8
				s14.4,2,19.7,5.8c5.4,3.8,8.4,8.9,8.4,14.4c0,5.3-2.8,10.2-7.9,14c-0.5,0.4-1.3,0.3-1.7-0.2c-0.4-0.5-0.3-1.3,0.2-1.7
				c4.4-3.3,6.9-7.6,6.9-12.1c0-9.8-11.6-17.8-25.8-17.8s-25.8,8-25.8,17.8c0,9.8,11.6,17.8,25.8,17.8c2.4,0,4.9-0.2,7.2-0.7
				c0.6-0.1,1.3,0.3,1.4,0.9c0.1,0.6-0.3,1.3-0.9,1.4C245.3,523.6,242.8,523.9,240.2,523.9z"/>
		</g>
		<g>
			<circle class="st4" cx="240.2" cy="429.1" r="82.2"/>
			<path class="st2" d="M240.2,512.5c-11.3,0-22.2-2.2-32.5-6.6c-9.9-4.2-18.8-10.2-26.5-17.9c-7.7-7.7-13.7-16.6-17.9-26.5
				c-4.3-10.3-6.6-21.2-6.6-32.5s2.2-22.2,6.6-32.5c4.2-9.9,10.2-18.8,17.9-26.5s16.6-13.7,26.5-17.9c10.3-4.3,21.2-6.6,32.5-6.6
				s22.2,2.2,32.5,6.6c9.9,4.2,18.8,10.2,26.5,17.9c7.7,7.7,13.7,16.6,17.9,26.5c4.3,10.3,6.6,21.2,6.6,32.5s-2.2,22.2-6.6,32.5
				c-4.2,9.9-10.2,18.8-17.9,26.5c-7.7,7.7-16.6,13.7-26.5,17.9C262.4,510.3,251.4,512.5,240.2,512.5z M240.2,348.1
				c-10.9,0-21.5,2.1-31.5,6.4c-9.6,4.1-18.3,9.9-25.8,17.4c-7.4,7.4-13.3,16.1-17.4,25.8c-4.2,10-6.4,20.6-6.4,31.5
				s2.1,21.5,6.4,31.5c4.1,9.6,9.9,18.3,17.4,25.8c7.4,7.4,16.1,13.3,25.8,17.4c10,4.2,20.6,6.4,31.5,6.4s21.5-2.1,31.5-6.4
				c9.6-4.1,18.3-9.9,25.8-17.4c7.4-7.4,13.3-16.1,17.4-25.8c4.2-10,6.4-20.6,6.4-31.5s-2.1-21.5-6.4-31.5
				c-4.1-9.6-9.9-18.3-17.4-25.8c-7.4-7.4-16.1-13.3-25.8-17.4C261.7,350.2,251.1,348.1,240.2,348.1z"/>
		</g>
		<g>
			<path class="st4" d="M167.2,452.5c-2.3-7.3-3.6-15.2-3.6-23.3"/>
			<path class="st2" d="M167.2,453.7c-0.5,0-1-0.3-1.1-0.8c-2.4-7.6-3.7-15.6-3.7-23.7c0-0.7,0.5-1.2,1.2-1.2s1.2,0.5,1.2,1.2
				c0,7.8,1.2,15.6,3.6,22.9c0.2,0.6-0.1,1.3-0.8,1.5C167.4,453.6,167.3,453.7,167.2,453.7z"/>
		</g>
		<g>
			<path class="st4" d="M169.7,459.2c-0.3-0.7-0.6-1.4-0.9-2.1"/>
			<path class="st2" d="M169.7,460.3c-0.5,0-0.9-0.3-1.1-0.7c-0.3-0.7-0.6-1.4-0.9-2.1c-0.2-0.6,0.1-1.3,0.7-1.5
				c0.6-0.2,1.3,0.1,1.5,0.7c0.3,0.7,0.6,1.4,0.8,2.1c0.3,0.6,0,1.3-0.6,1.6C170,460.3,169.8,460.3,169.7,460.3z"/>
		</g>
		<g>
			<path class="st4" d="M181.7,478.7c-0.4-0.4-0.8-0.9-1.1-1.4"/>
			<path class="st2" d="M181.7,479.8c-0.3,0-0.7-0.1-0.9-0.4c-0.4-0.5-0.8-0.9-1.1-1.4c-0.4-0.5-0.3-1.3,0.2-1.7
				c0.5-0.4,1.3-0.3,1.7,0.2c0.4,0.4,0.7,0.9,1.1,1.3c0.4,0.5,0.4,1.2-0.1,1.7C182.2,479.7,182,479.8,181.7,479.8z"/>
		</g>
		<g>
			<path class="st4" d="M210.8,500c-10.4-4.3-19.6-10.8-27.1-19"/>
			<path class="st2" d="M210.8,501.1c-0.2,0-0.3,0-0.5-0.1c-10.4-4.3-19.9-11-27.5-19.3c-0.4-0.5-0.4-1.2,0.1-1.7
				c0.5-0.4,1.2-0.4,1.7,0.1c7.4,8.1,16.6,14.5,26.7,18.7c0.6,0.3,0.9,0.9,0.6,1.5C211.7,500.9,211.3,501.1,210.8,501.1z"/>
		</g>
		<g>
			<path class="st4" d="M246.4,505.5c-2.1,0.2-4.1,0.2-6.2,0.2c-5.4,0-10.7-0.6-15.9-1.6"/>
			<path class="st2" d="M240.2,507c-5.4,0-10.8-0.6-16.1-1.7c-0.6-0.1-1.1-0.8-0.9-1.4c0.1-0.6,0.8-1.1,1.4-0.9
				c5.1,1.1,10.4,1.6,15.6,1.6c2,0,4.1-0.1,6.1-0.2c0.7-0.1,1.2,0.4,1.3,1.1s-0.4,1.2-1.1,1.3C244.4,506.9,242.3,507,240.2,507z"/>
		</g>
		<g>
			<path class="st3" d="M266.8,467.4h-43.1c-6.3,0-11.5-5.1-11.5-11.5v-47.8c-0.2-0.2,65.7,0,66,0v47.8
				C278.3,462.2,273.1,467.4,266.8,467.4z"/>
			<g>
				<path class="st5" d="M269.1,460.6h-54.5c-3.2,0-5.8-2.6-5.8-5.8v-72.7c0-3.2,2.6-5.8,5.8-5.8h54.5c3.2,0,5.8,2.6,5.8,5.8v72.7
					C274.9,458,272.3,460.6,269.1,460.6z"/>
				<path class="st2" d="M263.4,461.8h-43.1c-7,0-12.7-5.7-12.7-12.7v-61.3c0-7,5.7-12.7,12.7-12.7h43.1c7,0,12.7,5.7,12.7,12.7
					v61.3C276.1,456.1,270.4,461.8,263.4,461.8z M220.4,377.5c-5.7,0-10.3,4.6-10.3,10.3v61.3c0,5.7,4.6,10.3,10.3,10.3h43.1
					c5.7,0,10.3-4.6,10.3-10.3v-61.3c0-5.7-4.6-10.3-10.3-10.3H220.4z"/>
			</g>
			<g>
				<g>
					<path class="st5" d="M255,462.6h-26.1c-8.5,0-15.3-6.9-15.3-15.3v-53.7c0-8.5,6.9-15.3,15.3-15.3H255c8.5,0,15.3,6.9,15.3,15.3
						v53.7C270.3,455.7,263.4,462.6,255,462.6z"/>
					<path class="st2" d="M261.8,463.8H222c-5.3,0-9.7-4.3-9.7-9.7v-67.3c0-5.3,4.3-9.7,9.7-9.7h39.8c5.3,0,9.7,4.3,9.7,9.7v67.3
						C271.5,459.4,267.2,463.8,261.8,463.8z M222.1,379.5c-4,0-7.3,3.3-7.3,7.3v67.3c0,4,3.3,7.3,7.3,7.3h39.8c4,0,7.3-3.3,7.3-7.3
						v-67.3c0-4-3.3-7.3-7.3-7.3H222.1z"/>
				</g>
				<g>
					<path class="st5" d="M251.2,464.4h-26.1c-8.5,0-15.3-6.9-15.3-15.3v-53.7c0-8.5,6.9-15.3,15.3-15.3h26.1
						c8.5,0,15.3,6.9,15.3,15.3v53.7C266.5,457.6,259.6,464.4,251.2,464.4z"/>
					<path class="st2" d="M258,465.6h-39.8c-5.3,0-9.7-4.3-9.7-9.7v-67.3c0-5.3,4.3-9.7,9.7-9.7H258c5.3,0,9.7,4.3,9.7,9.7v67.3
						C267.7,461.3,263.4,465.6,258,465.6z M218.3,381.3c-4,0-7.3,3.3-7.3,7.3v67.3c0,4,3.3,7.3,7.3,7.3H258c4,0,7.3-3.3,7.3-7.3
						v-67.3c0-4-3.3-7.3-7.3-7.3H218.3z"/>
				</g>
				<g>
					<path class="st5" d="M247.4,466.3h-26.1c-8.5,0-15.3-6.9-15.3-15.3v-53.7c0-8.5,6.9-15.3,15.3-15.3h26.1
						c8.5,0,15.3,6.9,15.3,15.3V451C262.7,459.4,255.9,466.3,247.4,466.3z"/>
					<path class="st2" d="M254.2,467.4h-39.8c-5.3,0-9.7-4.3-9.7-9.7v-67.3c0-5.3,4.3-9.7,9.7-9.7h39.8c5.3,0,9.7,4.3,9.7,9.7v67.3
						C263.9,463.1,259.6,467.4,254.2,467.4z M214.5,383.2c-4,0-7.3,3.3-7.3,7.3v67.3c0,4,3.3,7.3,7.3,7.3h39.8c4,0,7.3-3.3,7.3-7.3
						v-67.3c0-4-3.3-7.3-7.3-7.3H214.5z"/>
				</g>
				<g>
					<path class="st5" d="M243.6,468.1h-26.1c-8.5,0-15.3-6.9-15.3-15.3v-53.7c0-8.5,6.9-15.3,15.3-15.3h26.1
						c8.5,0,15.3,6.9,15.3,15.3v53.7C258.9,461.2,252.1,468.1,243.6,468.1z"/>
					<path class="st2" d="M250.4,469.3h-39.8c-5.3,0-9.7-4.3-9.7-9.7v-67.3c0-5.3,4.3-9.7,9.7-9.7h39.8c5.3,0,9.7,4.3,9.7,9.7v67.3
						C260.1,465,255.8,469.3,250.4,469.3z M210.7,385c-4,0-7.3,3.3-7.3,7.3v67.3c0,4,3.3,7.3,7.3,7.3h39.8c4,0,7.3-3.3,7.3-7.3
						v-67.3c0-4-3.3-7.3-7.3-7.3H210.7z"/>
				</g>
				<g>
					<path class="st5" d="M239.8,469.9h-26.1c-8.5,0-15.3-6.9-15.3-15.3V401c0-8.5,6.9-15.3,15.3-15.3h26.1
						c8.5,0,15.3,6.9,15.3,15.3v53.7C255.1,463.1,248.3,469.9,239.8,469.9z"/>
					<path class="st2" d="M246.6,471.1h-39.8c-5.3,0-9.7-4.3-9.7-9.7v-67.3c0-5.3,4.3-9.7,9.7-9.7h39.8c5.3,0,9.7,4.3,9.7,9.7v67.3
						C256.3,466.8,252,471.1,246.6,471.1z M206.9,386.8c-4,0-7.3,3.3-7.3,7.3v67.3c0,4,3.3,7.3,7.3,7.3h39.8c4,0,7.3-3.3,7.3-7.3
						v-67.3c0-4-3.3-7.3-7.3-7.3H206.9z"/>
				</g>
			</g>
			<g>
				<path class="st5" d="M255.5,470h-52.3c-3.8,0-6.9-3.1-6.9-6.9v-70.5c0-3.8,3.1-6.9,6.9-6.9h52.3c3.8,0,6.9,3.1,6.9,6.9v70.5
					C262.3,466.9,259.3,470,255.5,470z"/>
				<path class="st2" d="M250.9,471.2h-43.1c-7,0-12.7-5.7-12.7-12.7v-61.3c0-7,5.7-12.7,12.7-12.7h43.1c7,0,12.7,5.7,12.7,12.7
					v61.3C263.5,465.5,257.8,471.2,250.9,471.2z M207.8,386.9c-5.7,0-10.3,4.6-10.3,10.3v61.3c0,5.7,4.6,10.3,10.3,10.3h43.1
					c5.7,0,10.3-4.6,10.3-10.3v-61.3c0-5.7-4.6-10.3-10.3-10.3H207.8z"/>
			</g>
			<g>
				<rect x="196.3" y="414.5" class="st1" width="66" height="26.7"/>
				<path class="st2" d="M262.3,442.4h-66c-0.7,0-1.2-0.5-1.2-1.2v-26.7c0-0.7,0.5-1.2,1.2-1.2h66c0.7,0,1.2,0.5,1.2,1.2v26.7
					C263.5,441.9,263,442.4,262.3,442.4z M197.5,440.1h63.7v-24.3h-63.7L197.5,440.1L197.5,440.1z"/>
			</g>
		</g>
		<path class="st6" d="M240.2,412.7"/>
		<path class="st6" d="M240.2,422.2"/>
		<path class="st6" d="M237,412.7"/>
		<g>
			<path class="st5" d="M236.6,420.8h7.8v5.4c0,1.1,0.9,2,2,2h30.3c1.1,0,2-0.9,2-2v-3.4c0-1.1-0.9-2-2-2h-17.8h22.8
				c1.1,0,2-0.9,2-2v-3.4c0-1.1-0.9-2-2-2h-22.8h20.8c1.1,0,2-0.9,2-2V408c0-1.1-0.9-2-2-2h-20.8l0,0h5c3,0,5.4-2.4,5.4-5.4l0,0
				c0-1.1-0.9-2-2-2h-20.8c-1.1,0-2,0.9-2,2v5.4h-7.8v14.8H236.6z"/>
			<path class="st2" d="M276.7,429.4h-30.3c-1.8,0-3.2-1.4-3.2-3.2V422h-6.6c-0.7,0-1.2-0.5-1.2-1.2v-14.9c0-0.7,0.5-1.2,1.2-1.2
				h6.6v-4.2c0-1.8,1.4-3.2,3.2-3.2h20.8c1.8,0,3.2,1.4,3.2,3.2c0,1.6-0.6,3.1-1.5,4.2h10.8c1.8,0,3.2,1.4,3.2,3.2v3.4
				c0,0.4-0.1,0.7-0.2,1c1.3,0.4,2.2,1.6,2.2,3v3.4c0,1.8-1.4,3.2-3.2,3.2h-1.9c0.1,0.3,0.1,0.6,0.1,0.8v3.4
				C279.9,428,278.5,429.4,276.7,429.4z M237.8,419.6h6.6c0.7,0,1.2,0.5,1.2,1.2v5.4c0,0.5,0.4,0.8,0.8,0.8h30.3
				c0.5,0,0.8-0.4,0.8-0.8v-3.4c0-0.5-0.4-0.8-0.8-0.8h-17.8c-0.7,0-1.2-0.5-1.2-1.2s0.5-1.2,1.2-1.2h22.8c0.5,0,0.8-0.4,0.8-0.8
				v-3.4c0-0.5-0.4-0.8-0.8-0.8h-22.8c-0.7,0-1.2-0.5-1.2-1.2s0.5-1.2,1.2-1.2h20.8c0.5,0,0.8-0.4,0.8-0.8V408
				c0-0.5-0.4-0.8-0.8-0.8h-20.8c-0.7,0-1.2-0.5-1.2-1.2s0.5-1.2,1.2-1.2h5c2.3,0,4.2-1.9,4.2-4.2c0-0.5-0.4-0.8-0.8-0.8h-20.8
				c-0.5,0-0.8,0.4-0.8,0.8v5.4c0,0.7-0.5,1.2-1.2,1.2h-6.6v12.4H237.8z"/>
		</g>
		<g>
			<path class="st4" d="M180,379.6c-3.5,1.7-8.4,4.6-11.6,8.6c-1.4,1.8-2.5,3.8-2.9,6c0.2,2.7,1.4,5.3,3.4,7.3
				c2.2,2.2,5.1,3.4,8.1,3.4h62.5l0,0h0.1c2,0,3.6,3.8,3.6,8.5s-1.6,8.5-3.6,8.5h-0.1l0,0H177c-15.7,0-28.5-12.8-28.5-28.4l0,0l0,0
				l0,0c0.6-6.5,3.2-12.5,8.2-17.8c4-4.3,9.4-8.1,16-11.3c11.2-5.4,25.7-8.6,38.8-8.6v16.9"/>
			<path class="st2" d="M239.6,423L239.6,423C239.5,423,239.5,423,239.6,423H177c-16.3,0-29.6-13.3-29.6-29.6l0,0l0,0v-0.1
				c0.7-6.9,3.5-13.2,8.5-18.5c4.1-4.4,9.6-8.3,16.3-11.5c11.4-5.4,26.1-8.7,39.3-8.7c0.7,0,1.2,0.5,1.2,1.2v16.9
				c0,0.7-0.5,1.2-1.2,1.2s-1.2-0.5-1.2-1.2V357c-12.6,0.2-26.4,3.3-37.1,8.4c-6.4,3.1-11.7,6.8-15.6,11c-4.6,4.9-7.2,10.6-7.8,17
				c0,15,12.3,27.2,27.3,27.2h62.4c0.1,0,0.1,0,0.2,0l0,0c0.9,0,2.4-2.8,2.4-7.3s-1.6-7.2-2.4-7.3l0,0c-0.1,0-0.1,0-0.2,0H177
				c-3.4,0-6.6-1.3-9-3.7c-2.2-2.2-3.5-5-3.7-8.1c0-0.1,0-0.2,0-0.3c0.4-2.2,1.4-4.4,3.1-6.5c3.5-4.4,9-7.5,12-8.9
				c0.6-0.3,1.3,0,1.6,0.6s0,1.3-0.6,1.6c-2.8,1.3-8,4.2-11.2,8.2c-1.4,1.7-2.2,3.5-2.6,5.3c0.2,2.4,1.3,4.7,3,6.4c2,2,4.6,3,7.3,3
				h62.5l0,0l0,0c1.5,0,2.8,1.1,3.7,3.2c0.7,1.7,1.2,4,1.2,6.5c0,2.4-0.4,4.7-1.2,6.5C242.4,421.9,241.1,423,239.6,423z"/>
		</g>
		<g>
			<path class="st5" d="M243.7,427.6h-7.8v5.4c0,1.1-0.9,2-2,2h-30.3c-1.1,0-2-0.9-2-2v-3.4c0-1.1,0.9-2,2-2h17.8h-22.8
				c-1.1,0-2-0.9-2-2v-3.4c0-1.1,0.9-2,2-2h22.8h-20.8c-1.1,0-2-0.9-2-2v-3.4c0-1.1,0.9-2,2-2h20.8l0,0h-5c-3,0-5.4-2.4-5.4-5.4l0,0
				c0-1.1,0.9-2,2-2h20.8c1.1,0,2,0.9,2,2v5.4h7.8L243.7,427.6L243.7,427.6z"/>
			<path class="st2" d="M233.9,436.2h-30.3c-1.8,0-3.2-1.4-3.2-3.2v-3.4c0-0.3,0-0.6,0.1-0.8h-1.9c-1.8,0-3.2-1.4-3.2-3.2v-3.4
				c0-1.4,0.9-2.6,2.2-3c-0.1-0.3-0.2-0.7-0.2-1v-3.4c0-1.8,1.4-3.2,3.2-3.2h10.8c-1-1.1-1.5-2.6-1.5-4.2c0-1.8,1.4-3.2,3.2-3.2
				h20.8c1.8,0,3.2,1.4,3.2,3.2v4.2h6.6c0.7,0,1.2,0.5,1.2,1.2v14.9c0,0.7-0.5,1.2-1.2,1.2h-6.6v4.2
				C237.1,434.8,235.7,436.2,233.9,436.2z M203.6,428.8c-0.5,0-0.8,0.4-0.8,0.8v3.4c0,0.5,0.4,0.8,0.8,0.8h30.3
				c0.5,0,0.8-0.4,0.8-0.8v-5.4c0-0.7,0.5-1.2,1.2-1.2h6.6v-12.5h-6.6c-0.7,0-1.2-0.5-1.2-1.2v-5.4c0-0.5-0.4-0.8-0.8-0.8h-20.8
				c-0.5,0-0.8,0.4-0.8,0.8c0,2.3,1.9,4.2,4.2,4.2h5c0.7,0,1.2,0.5,1.2,1.2s-0.5,1.2-1.2,1.2h-20.8c-0.5,0-0.8,0.4-0.8,0.8v3.4
				c0,0.5,0.4,0.8,0.8,0.8h20.8c0.7,0,1.2,0.5,1.2,1.2s-0.5,1.2-1.2,1.2h-22.8c-0.5,0-0.8,0.4-0.8,0.8v3.4c0,0.5,0.4,0.8,0.8,0.8
				h22.8c0.7,0,1.2,0.5,1.2,1.2s-0.5,1.2-1.2,1.2h-17.9V428.8z"/>
		</g>
		<g>
			<path class="st4" d="M269.9,367.6v-16.9c13.1,0,28,5.1,40.1,13.5c6.4,4.5,11.5,9.6,15.3,15.3c4.4,6.6,6.6,13.5,6.6,20.6l0,0l0,0
				l0,0l0,0c0,15.7-12.8,28.4-28.5,28.4h-62.5l0,0h-0.1c-2,0-3.6-3.8-3.6-8.5s1.6-8.5,3.6-8.5h0.1l0,0h62.5c3.1,0,5.9-1.2,8.1-3.4
				c2.2-2.2,3.4-5.1,3.4-8.1c0-7.5-5.3-15.5-14.7-22"/>
			<path class="st2" d="M303.4,429.8h-62.5l0,0l0,0c-1.5,0-2.8-1.1-3.7-3.2c-0.7-1.7-1.2-4-1.2-6.5s0.4-4.7,1.2-6.5
				c0.9-2.1,2.2-3.2,3.7-3.2l0,0l0,0h62.5c2.7,0,5.3-1.1,7.3-3c2-2,3-4.6,3-7.3c0-7.1-5.2-14.8-14.1-21.1c-0.5-0.4-0.7-1.1-0.3-1.7
				c0.4-0.5,1.1-0.7,1.7-0.3c9.6,6.8,15.2,15.2,15.2,23c0,3.4-1.3,6.6-3.7,9c-2.4,2.4-5.6,3.7-9,3.7H241c-0.1,0-0.1,0-0.2,0l0,0
				c-0.9,0-2.4,2.8-2.4,7.3s1.6,7.2,2.4,7.3l0,0c0.1,0,0.1,0,0.2,0h62.4c15,0,27.3-12.2,27.3-27.3l0,0c0-6.8-2.2-13.6-6.4-20
				c-3.6-5.5-8.7-10.5-15-15c-11.5-8.1-25.7-13-38.2-13.3v15.7c0,0.7-0.5,1.2-1.2,1.2s-1.2-0.5-1.2-1.2v-16.9c0-0.7,0.5-1.2,1.2-1.2
				c13.3,0,28.5,5.1,40.8,13.8c6.5,4.6,11.8,9.8,15.6,15.6c4.5,6.8,6.8,13.9,6.8,21.3l0,0C333,416.5,319.7,429.8,303.4,429.8z"/>
		</g>
		<g>
			<path class="st3" d="M286.6,353.2c-0.2-0.1-0.3-0.1-0.3-0.1C286.3,353.1,286.5,353.1,286.6,353.2z"/>
			<path class="st3" d="M286.2,353.1L286.2,353.1c-5.6-1.5-9.3-1.9-9.3-1.9L286.2,353.1z"/>
			<path class="st3" d="M322.4,375.6c-10.6-13.6-25.9-19.8-35.8-22.5c3.8,1.1,38.1,11.7,38.1,46.3c0,15.1-13.2,21-27.1,21
				s-60.6,0-60.6,0l0.5,5.8l-3.7,10.1h28.6v4.9l12.1-4.9h31.3c0,0,8.8,58.6-62.2,74.9c-1.1,0-2.2,0.1-3.3,0.1
				c-9.3,0-18.2-1.5-26.6-4.4c0.5,2.2,1.6,4.3,3.1,6.1c7,1.4,15,2.2,23.5,2.2c5.2,0,10.2-0.3,14.9-0.9l-1.4,1.9v110.5h6.2v-108
				l3.4-5.6c0.1,0,0.3-0.1,0.4-0.1c1.3-1.6,2.2-3.4,2.8-5.2l0,0c0,0,32-9.4,49.6-47.2c3.8-11.4,6.7-17.9,5.9-39
				C322,421.6,344,403.3,322.4,375.6z M243.8,511.2l15.1-2.1C254,510.3,249,511,243.8,511.2z"/>
		</g>
		<g class="st7">
			<path class="st2" d="M167.5,366.9c0.1-0.1,0.2-0.1,0.3-0.2C167.8,366.7,167.7,366.8,167.5,366.9z"/>
		</g>
		<g>
			<path class="st8" d="M275.6,359.8h-70.9c-5.8,0-10.6-4.8-10.6-10.6v-42.6c0-5.8,4.8-10.6,10.6-10.6h70.9
				c5.8,0,10.6,4.8,10.6,10.6v42.6C286.2,355.1,281.5,359.8,275.6,359.8z"/>
			<path class="st2" d="M267.9,361h-55.4c-10.8,0-19.5-8.8-19.5-19.5v-27.2c0-10.8,8.8-19.5,19.5-19.5h55.4
				c10.8,0,19.5,8.8,19.5,19.5v27.2C287.4,352.3,278.7,361,267.9,361z M212.5,297.2c-9.5,0-17.2,7.7-17.2,17.2v27.2
				c0,9.5,7.7,17.2,17.2,17.2h55.4c9.5,0,17.2-7.7,17.2-17.2v-27.2c0-9.5-7.7-17.2-17.2-17.2H212.5z"/>
		</g>
		<g>
			<path class="st5" d="M289.7,322.2h-99c-1.2,0-2.3-1-2.3-2.3v-11.5c0-1.2,1-2.3,2.3-2.3h99c1.2,0,2.3,1,2.3,2.3v11.5
				C291.9,321.1,290.9,322.2,289.7,322.2z"/>
			<path class="st2" d="M289.9,323.4h-99.5c-1.8,0-3.2-1.4-3.2-3.2v-12c0-1.8,1.4-3.2,3.2-3.2h99.5c1.8,0,3.2,1.4,3.2,3.2v12
				C293.1,321.9,291.7,323.4,289.9,323.4z M190.4,307.3c-0.5,0-0.8,0.4-0.8,0.8v12c0,0.5,0.4,0.8,0.8,0.8h99.5
				c0.5,0,0.8-0.4,0.8-0.8v-12c0-0.5-0.4-0.8-0.8-0.8H190.4z"/>
		</g>
		<g>
			<g>
				<g>
					<line class="st9" x1="191.1" y1="310" x2="199" y2="317.9"/>
					<path class="st2" d="M199,318.8c-0.2,0-0.4-0.1-0.6-0.2l-7.9-7.9c-0.3-0.3-0.3-0.9,0-1.2c0.3-0.3,0.9-0.3,1.2,0l7.9,7.9
						c0.3,0.3,0.3,0.9,0,1.2C199.4,318.7,199.2,318.8,199,318.8z"/>
				</g>
				<g>
					<line class="st9" x1="199" y1="310" x2="191.1" y2="317.9"/>
					<path class="st2" d="M191.1,318.8c-0.2,0-0.4-0.1-0.6-0.2c-0.3-0.3-0.3-0.9,0-1.2l7.9-7.9c0.3-0.3,0.9-0.3,1.2,0s0.3,0.9,0,1.2
						l-7.9,7.9C191.5,318.7,191.3,318.8,191.1,318.8z"/>
				</g>
			</g>
			<g>
				<g>
					<line class="st9" x1="281.4" y1="310" x2="289.3" y2="317.9"/>
					<path class="st2" d="M289.3,318.8c-0.2,0-0.4-0.1-0.6-0.2l-7.9-7.9c-0.3-0.3-0.3-0.9,0-1.2c0.3-0.3,0.9-0.3,1.2,0l7.9,7.9
						c0.3,0.3,0.3,0.9,0,1.2C289.7,318.7,289.5,318.8,289.3,318.8z"/>
				</g>
				<g>
					<line class="st9" x1="289.3" y1="310" x2="281.4" y2="317.9"/>
					<path class="st2" d="M281.4,318.8c-0.2,0-0.4-0.1-0.6-0.2c-0.3-0.3-0.3-0.9,0-1.2l7.9-7.9c0.3-0.3,0.9-0.3,1.2,0
						c0.3,0.3,0.3,0.9,0,1.2l-7.9,7.9C281.8,318.7,281.6,318.8,281.4,318.8z"/>
				</g>
			</g>
		</g>
		<g>
			<polyline class="st5" points="277.7,309.7 277.7,292.2 202.7,292.2 202.7,309.7 			"/>
			<path class="st2" d="M277.7,310.8c-0.7,0-1.2-0.5-1.2-1.2v-16.3h-72.6v16.3c0,0.7-0.5,1.2-1.2,1.2s-1.2-0.5-1.2-1.2v-17.5
				c0-0.7,0.5-1.2,1.2-1.2h75c0.7,0,1.2,0.5,1.2,1.2v17.5C278.9,310.3,278.3,310.8,277.7,310.8z"/>
		</g>
		<g>
			<path class="st10" d="M215.3,272.4l51,0.9c-7.3-5.4-16.4-8.7-26.2-8.7C231,264.7,222.4,267.5,215.3,272.4L215.3,272.4z"/>
			<path class="st2" d="M266.3,274.5L266.3,274.5l-51-0.9c-0.5,0-1-0.3-1.1-0.8c-0.2-0.5,0-1,0.4-1.3l0,0l0,0
				c7.5-5.2,16.3-7.9,25.5-7.9c9.8,0,19.1,3.1,26.9,8.9c0.4,0.3,0.6,0.8,0.4,1.3C267.3,274.2,266.8,274.5,266.3,274.5z M219.3,271.3
				l43,0.8c-6.7-4.1-14.3-6.2-22.2-6.2C232.8,265.9,225.7,267.7,219.3,271.3z"/>
		</g>
		<g>
			<path class="st11" d="M280.1,282.1c0.4-2.3-0.6-4.7-2.8-5.8c-9.3-5-21.1-7.8-33.4-7.8h-1.1h-5.4h-1.1c-12.3,0-24.1,2.8-33.4,7.8
				c-2.1,1.2-3.2,3.6-2.8,5.8H200v13.3l0,0c0.1,0.6,0.3,1.3,0.6,1.9c1,1.8,2.9,2.9,4.8,2.9c0.9,0,1.8-0.2,2.6-0.7
				c7.7-4.2,17.7-6.5,28.1-6.5h1.1h5.4h1.1c10.5,0,20.5,2.3,28.1,6.5c0.8,0.5,1.7,0.7,2.6,0.7c1.9,0,3.8-1,4.8-2.9
				c0.3-0.6,0.5-1.2,0.6-1.9l0,0L280.1,282.1L280.1,282.1z"/>
			<path class="st2" d="M274.7,301.3c-1.1,0-2.2-0.3-3.2-0.8c-7.5-4.1-17.3-6.3-27.6-6.3h-7.6c-10.3,0-20.1,2.3-27.6,6.3
				c-1,0.5-2.1,0.8-3.2,0.8c-2.4,0-4.7-1.3-5.8-3.5c-0.3-0.6-0.6-1.3-0.7-1.9c-0.1-0.2-0.1-0.3-0.1-0.5v-13.3c0-0.1,0-0.2,0-0.3
				c-0.3-2.7,1-5.3,3.4-6.6c9.4-5.1,21.5-8,33.9-8h7.6c12.4,0,24.5,2.8,33.9,8c2.4,1.3,3.7,3.9,3.4,6.6c0,0.1,0,0.2,0,0.3v13.3
				c0,0.2,0,0.4-0.1,0.5c-0.1,0.7-0.4,1.3-0.7,1.9C279.4,300,277.2,301.3,274.7,301.3z M236.4,291.8h7.6c10.7,0,20.8,2.4,28.7,6.6
				c0.6,0.3,1.3,0.5,2,0.5c1.6,0,3-0.9,3.8-2.2c0.3-0.5,0.4-1,0.5-1.5c0-0.1,0-0.1,0-0.2v-12.5c-0.1-0.2-0.1-0.5-0.1-0.7
				c0.4-1.8-0.5-3.7-2.2-4.6c-9.1-4.9-20.7-7.7-32.8-7.7h-7.6c-12.1,0-23.7,2.7-32.8,7.7c-1.6,0.9-2.5,2.7-2.2,4.6
				c0,0.2,0,0.5-0.1,0.7V295c0,0.1,0,0.1,0,0.2c0.1,0.5,0.2,1,0.5,1.5c0.7,1.4,2.2,2.2,3.8,2.2c0.7,0,1.4-0.2,2-0.5
				C215.5,294.2,225.7,291.8,236.4,291.8z"/>
		</g>
		<g>
			<g>
				<line class="st9" x1="276.9" y1="281.1" x2="276.9" y2="294.6"/>
				<path class="st2" d="M276.9,295.5c-0.5,0-0.8-0.4-0.8-0.8v-13.5c0-0.5,0.4-0.8,0.8-0.8c0.5,0,0.8,0.4,0.8,0.8v13.5
					C277.8,295.1,277.4,295.5,276.9,295.5z"/>
			</g>
			<g>
				<line class="st9" x1="271.7" y1="278.7" x2="271.7" y2="294.2"/>
				<path class="st2" d="M271.7,295c-0.5,0-0.8-0.4-0.8-0.8v-15.5c0-0.5,0.4-0.8,0.8-0.8c0.5,0,0.8,0.4,0.8,0.8v15.5
					C272.5,294.7,272.1,295,271.7,295z"/>
			</g>
			<g>
				<line class="st9" x1="266.4" y1="276.8" x2="266.4" y2="291.8"/>
				<path class="st2" d="M266.4,292.7c-0.5,0-0.8-0.4-0.8-0.8v-15c0-0.5,0.4-0.8,0.8-0.8c0.5,0,0.8,0.4,0.8,0.8v15
					C267.3,292.3,266.9,292.7,266.4,292.7z"/>
			</g>
			<g>
				<line class="st9" x1="261.2" y1="275.4" x2="261.2" y2="290.1"/>
				<path class="st2" d="M261.2,291c-0.5,0-0.8-0.4-0.8-0.8v-14.7c0-0.5,0.4-0.8,0.8-0.8s0.8,0.4,0.8,0.8v14.7
					C262,290.6,261.6,291,261.2,291z"/>
			</g>
			<g>
				<line class="st9" x1="255.9" y1="274.4" x2="255.9" y2="289"/>
				<path class="st2" d="M255.9,289.8c-0.5,0-0.8-0.4-0.8-0.8v-14.6c0-0.5,0.4-0.8,0.8-0.8c0.4,0,0.8,0.4,0.8,0.8V289
					C256.8,289.4,256.4,289.8,255.9,289.8z"/>
			</g>
			<g>
				<line class="st9" x1="250.7" y1="273.8" x2="250.7" y2="288.3"/>
				<path class="st2" d="M250.7,289.1c-0.5,0-0.8-0.4-0.8-0.8v-14.5c0-0.5,0.4-0.8,0.8-0.8c0.5,0,0.8,0.4,0.8,0.8v14.5
					C251.5,288.7,251.1,289.1,250.7,289.1z"/>
			</g>
			<g>
				<line class="st9" x1="245.4" y1="273.5" x2="245.4" y2="288"/>
				<path class="st2" d="M245.4,288.8c-0.5,0-0.8-0.4-0.8-0.8v-14.4c0-0.5,0.4-0.8,0.8-0.8c0.5,0,0.8,0.4,0.8,0.8V288
					C246.3,288.4,245.9,288.8,245.4,288.8z"/>
			</g>
			<g>
				<line class="st9" x1="240.2" y1="273.5" x2="240.2" y2="287.9"/>
				<path class="st2" d="M240.2,288.8c-0.5,0-0.8-0.4-0.8-0.8v-14.4c0-0.5,0.4-0.8,0.8-0.8c0.5,0,0.8,0.4,0.8,0.8V288
					C241,288.4,240.6,288.8,240.2,288.8z"/>
			</g>
			<g>
				<line class="st9" x1="234.9" y1="273.5" x2="234.9" y2="288"/>
				<path class="st2" d="M234.9,288.8c-0.5,0-0.8-0.4-0.8-0.8v-14.4c0-0.5,0.4-0.8,0.8-0.8c0.5,0,0.8,0.4,0.8,0.8V288
					C235.8,288.4,235.4,288.8,234.9,288.8z"/>
			</g>
			<g>
				<line class="st9" x1="229.7" y1="273.8" x2="229.7" y2="288.3"/>
				<path class="st2" d="M229.7,289.1c-0.5,0-0.8-0.4-0.8-0.8v-14.5c0-0.5,0.4-0.8,0.8-0.8c0.5,0,0.8,0.4,0.8,0.8v14.5
					C230.5,288.7,230.1,289.1,229.7,289.1z"/>
			</g>
			<g>
				<line class="st9" x1="224.4" y1="274.4" x2="224.4" y2="289"/>
				<path class="st2" d="M224.4,289.8c-0.5,0-0.8-0.4-0.8-0.8v-14.6c0-0.5,0.4-0.8,0.8-0.8c0.5,0,0.8,0.4,0.8,0.8V289
					C225.3,289.4,224.9,289.8,224.4,289.8z"/>
			</g>
			<g>
				<line class="st9" x1="219.2" y1="275.4" x2="219.2" y2="290.1"/>
				<path class="st2" d="M219.2,291c-0.5,0-0.8-0.4-0.8-0.8v-14.7c0-0.5,0.4-0.8,0.8-0.8c0.5,0,0.8,0.4,0.8,0.8v14.7
					C220,290.6,219.6,291,219.2,291z"/>
			</g>
			<g>
				<line class="st9" x1="213.9" y1="276.8" x2="213.9" y2="291.8"/>
				<path class="st2" d="M213.9,292.7c-0.5,0-0.8-0.4-0.8-0.8v-15c0-0.5,0.4-0.8,0.8-0.8c0.5,0,0.8,0.4,0.8,0.8v15
					C214.8,292.3,214.4,292.7,213.9,292.7z"/>
			</g>
			<g>
				<line class="st9" x1="208.7" y1="278.7" x2="208.7" y2="294.2"/>
				<path class="st2" d="M208.7,295c-0.5,0-0.8-0.4-0.8-0.8v-15.5c0-0.5,0.4-0.8,0.8-0.8c0.5,0,0.8,0.4,0.8,0.8v15.5
					C209.5,294.7,209.1,295,208.7,295z"/>
			</g>
			<g>
				<line class="st9" x1="203.4" y1="281.1" x2="203.4" y2="294.6"/>
				<path class="st2" d="M203.4,295.5c-0.5,0-0.8-0.4-0.8-0.8v-13.5c0-0.5,0.4-0.8,0.8-0.8c0.5,0,0.8,0.4,0.8,0.8v13.5
					C204.3,295.1,203.9,295.5,203.4,295.5z"/>
			</g>
		</g>
		<g>
			<path class="st2" d="M223.6,310h-15.7c-0.7,0-1.2-0.5-1.2-1.2s0.5-1.2,1.2-1.2h15.7c0.7,0,1.2,0.5,1.2,1.2S224.3,310,223.6,310z"
				/>
			<path class="st2" d="M272.5,310h-15.7c-0.7,0-1.2-0.5-1.2-1.2s0.5-1.2,1.2-1.2h15.7c0.7,0,1.2,0.5,1.2,1.2S273.1,310,272.5,310z"
				/>
		</g>
		<g>
			<polyline class="st5" points="277.7,319.3 277.7,337.1 202.7,337.1 202.7,319.3 			"/>
			<path class="st2" d="M277.7,338.3h-75c-0.7,0-1.2-0.5-1.2-1.2v-17.8c0-0.7,0.5-1.2,1.2-1.2s1.2,0.5,1.2,1.2V336h72.6v-16.6
				c0-0.7,0.5-1.2,1.2-1.2s1.2,0.5,1.2,1.2v17.8C278.9,337.8,278.3,338.3,277.7,338.3z"/>
		</g>
		<g>
			<g>
				<polyline class="st5" points="234.9,299.8 234.9,312.6 227.4,312.6 227.4,324.5 252.9,324.5 252.9,312.6 				"/>
				<path class="st2" d="M252.9,325.7h-25.5c-0.7,0-1.2-0.5-1.2-1.2v-11.9c0-0.7,0.5-1.2,1.2-1.2h6.3v-11.6c0-0.7,0.5-1.2,1.2-1.2
					s1.2,0.5,1.2,1.2v12.8c0,0.7-0.5,1.2-1.2,1.2h-6.3v9.6h23.1v-10.8c0-0.7,0.5-1.2,1.2-1.2s1.2,0.5,1.2,1.2v11.9
					C254.1,325.2,253.6,325.7,252.9,325.7z"/>
			</g>
			<g>
				<line class="st9" x1="245.5" y1="304.6" x2="240.6" y2="304.6"/>
				<path class="st2" d="M245.5,305.5h-4.9c-0.5,0-0.8-0.4-0.8-0.8c0-0.5,0.4-0.8,0.8-0.8h4.9c0.5,0,0.8,0.4,0.8,0.8
					C246.4,305.1,246,305.5,245.5,305.5z"/>
			</g>
			<g>
				<line class="st9" x1="245.5" y1="308.4" x2="240.6" y2="308.4"/>
				<path class="st2" d="M245.5,309.3h-4.9c-0.5,0-0.8-0.4-0.8-0.8s0.4-0.8,0.8-0.8h4.9c0.5,0,0.8,0.4,0.8,0.8
					S246,309.3,245.5,309.3z"/>
			</g>
			<g>
				<line class="st9" x1="245.5" y1="312.2" x2="240.6" y2="312.2"/>
				<path class="st2" d="M245.5,313h-4.9c-0.5,0-0.8-0.4-0.8-0.8c0-0.5,0.4-0.8,0.8-0.8h4.9c0.5,0,0.8,0.4,0.8,0.8
					C246.4,312.7,246,313,245.5,313z"/>
			</g>
		</g>
		<g>
			<path class="st8" d="M266.3,324.4L266.3,324.4L266.3,324.4h-26.1l0,0H214l0,0c-6.1,0-11.1,5-11.1,11.1v32.1
				c0,6.1,5,11.1,11.1,11.1l0,0c6.1,0,11.1-5,11.1-11.1l0.1,1.3c0,8.3,6.8,15,15,15l0,0c8.3,0,15-6.8,15-15v-1.3c0,6.1,5,11,11.1,11
				l0,0c6.1,0,11.1-5,11.1-11.1v-32.1C277.4,329.4,272.4,324.4,266.3,324.4z"/>
			<path class="st2" d="M240.2,385.1c-7.3,0-13.5-4.9-15.5-11.5c-2.1,3.7-6.1,6.2-10.7,6.2c-6.8,0-12.3-5.5-12.3-12.3v-32.1
				c0-6.8,5.5-12.3,12.3-12.3h52.3c6.8,0,12.3,5.5,12.3,12.3v32.1c0,6.8-5.5,12.3-12.3,12.3c-4.5,0-8.5-2.5-10.6-6.1
				C253.7,380.3,247.5,385.1,240.2,385.1z M225.1,366.4c0.6,0,1.1,0.5,1.2,1.1l0.1,1.3v0.1c0,7.6,6.2,13.8,13.8,13.8
				s13.8-6.2,13.8-13.8v-1.3c0-0.7,0.5-1.2,1.2-1.2l0,0c0.7,0,1.2,0.5,1.2,1.2c0,5.4,4.5,9.9,9.9,9.9c5.5,0,9.9-4.4,9.9-9.9v-32.1
				c0-5.5-4.4-9.9-9.9-9.9H214c-5.5,0-9.9,4.4-9.9,9.9v32.1c0,5.5,4.4,9.9,9.9,9.9s9.9-4.4,9.9-9.9
				C223.9,367,224.4,366.5,225.1,366.4L225.1,366.4z"/>
		</g>
		<g>
			<path class="st8" d="M232,372.8c2,3.5,5.8,5.9,10.1,5.9l0,0"/>
			<path class="st2" d="M242.1,379.9c-4.6,0-8.9-2.5-11.1-6.5c-0.3-0.6-0.1-1.3,0.4-1.6c0.6-0.3,1.3-0.1,1.6,0.4
				c1.9,3.3,5.3,5.3,9.1,5.3c0.7,0,1.2,0.5,1.2,1.2S242.7,379.9,242.1,379.9z"/>
		</g>
		<g>
			<path class="st8" d="M230.5,367.1c0,0.8,0.1,1.6,0.2,2.3"/>
			<path class="st2" d="M230.7,370.6c-0.6,0-1-0.4-1.2-0.9c-0.2-0.8-0.3-1.7-0.3-2.6c0-0.7,0.5-1.2,1.2-1.2s1.2,0.5,1.2,1.2
				s0.1,1.4,0.2,2.1c0.1,0.6-0.3,1.3-0.9,1.4C230.9,370.6,230.8,370.6,230.7,370.6z"/>
		</g>
		<g>
			<path class="st8" d="M207.4,365.9c0,4.6,3.8,8.4,8.4,8.4l0,0"/>
			<path class="st2" d="M215.7,375.5c-5.3,0-9.6-4.3-9.6-9.6c0-0.7,0.5-1.2,1.2-1.2s1.2,0.5,1.2,1.2c0,4,3.2,7.2,7.2,7.2
				c0.7,0,1.2,0.5,1.2,1.2S216.4,375.5,215.7,375.5z"/>
		</g>
		<g>
			<path class="st5" d="M244.1,353.1h-7.9c-2.6,0-4.7-2.1-4.7-4.7v-14.7h17.3v14.7C248.8,351,246.7,353.1,244.1,353.1z"/>
			<path class="st2" d="M240.2,354.2c-5.4,0-9.8-4.4-9.8-9.8v-10.7c0-0.7,0.5-1.2,1.2-1.2h17.3c0.7,0,1.2,0.5,1.2,1.2v10.7
				C250,349.8,245.6,354.2,240.2,354.2z M232.7,334.9v9.5c0,4.1,3.3,7.5,7.5,7.5l0,0c4.1,0,7.5-3.3,7.5-7.5v-9.5H232.7z"/>
		</g>
		<g>
			<path class="st5" d="M244.8,343.1c0,2.5-2.1,4.6-4.6,4.6l0,0c-2.5,0-4.6-2.1-4.6-4.6"/>
			<path class="st2" d="M240.2,348.5c-3,0-5.4-2.4-5.4-5.4c0-0.5,0.4-0.8,0.8-0.8c0.5,0,0.8,0.4,0.8,0.8c0,2.1,1.7,3.7,3.7,3.7
				c2.1,0,3.7-1.7,3.7-3.7c0-0.5,0.4-0.8,0.8-0.8c0.5,0,0.8,0.4,0.8,0.8C245.6,346.1,243.2,348.5,240.2,348.5z"/>
		</g>
		<g>
			<g>
				<path class="st8" d="M223.1,306h-19.2c-1.4,0-2.5-1.1-2.5-2.5v-4.2c0-1.4,1.1-2.5,2.5-2.5h19.2c1.4,0,2.5,1.1,2.5,2.5v4.2
					C225.6,304.9,224.5,306,223.1,306z"/>
				<path class="st2" d="M223.6,307.2h-20.1c-1.8,0-3.2-1.4-3.2-3.2v-5c0-1.8,1.4-3.2,3.2-3.2h20.1c1.8,0,3.2,1.4,3.2,3.2v5
					C226.8,305.7,225.3,307.2,223.6,307.2z M203.5,298.1c-0.5,0-0.8,0.4-0.8,0.8v5c0,0.5,0.4,0.8,0.8,0.8h20.1
					c0.5,0,0.8-0.4,0.8-0.8v-5c0-0.5-0.4-0.8-0.8-0.8H203.5z"/>
			</g>
			<g>
				<path class="st8" d="M276,306h-19.2c-1.4,0-2.5-1.1-2.5-2.5v-4.2c0-1.4,1.1-2.5,2.5-2.5H276c1.4,0,2.5,1.1,2.5,2.5v4.2
					C278.5,304.9,277.4,306,276,306z"/>
				<path class="st2" d="M276.5,307.2h-20.1c-1.8,0-3.2-1.4-3.2-3.2v-5c0-1.8,1.4-3.2,3.2-3.2h20.1c1.8,0,3.2,1.4,3.2,3.2v5
					C279.7,305.7,278.2,307.2,276.5,307.2z M256.4,298.1c-0.5,0-0.8,0.4-0.8,0.8v5c0,0.5,0.4,0.8,0.8,0.8h20.1
					c0.5,0,0.8-0.4,0.8-0.8v-5c0-0.5-0.4-0.8-0.8-0.8H256.4z"/>
			</g>
		</g>
		<path class="st3" d="M238.9,336c0.1-0.2,0.3-0.3,0.4-0.5c0.1,0.2,0.3,0.4,0.4,0.5l0,0c0.3,0.4,0.7,0.7,1.1,1.1l0,0
			c-0.3,0-1.1-0.1-1.3,0.3c-0.7,0.1-1.6,0.3-2.7,0.5C237.6,337.3,238.3,336.7,238.9,336L238.9,336z"/>
		<g>
			<path class="st8" d="M266,326.9c-1.1,1-2.6,1.6-4.2,1.6c-2.2,0-4.2-1.2-5.3-2.9c-1.5-3.8-5.3-6.5-9.7-6.2c-2.6,0.2-5,1.4-6.6,3.3
				c-1.6-1.9-4-3.1-6.6-3.3c-4.4-0.3-8.2,2.4-9.7,6.2c-1.1,1.7-3.1,2.9-5.3,2.9c-1.6,0-3.1-0.6-4.2-1.6c-0.8-0.7-2.1,0-1.8,1.1
				c1.4,6.4,6.7,11.5,13.6,12.5c5.2,0.7,10.1-1.1,13.6-4.5l0,0c0.2-0.2,0.3-0.3,0.5-0.5c0.2,0.2,0.3,0.4,0.5,0.5l0,0
				c3.5,3.4,8.4,5.2,13.6,4.5c6.9-1,12.1-6.1,13.6-12.5C268,326.9,266.8,326.2,266,326.9z"/>
			<path class="st2" d="M252,341.8L252,341.8c-4.4,0-8.6-1.7-11.8-4.7c-3.2,3-7.4,4.7-11.8,4.7c-0.8,0-1.6-0.1-2.4-0.2
				c-7.1-1-13-6.4-14.6-13.4c-0.2-0.7,0-1.4,0.4-1.9s1.1-0.9,1.8-0.9c0.6,0,1.1,0.2,1.5,0.6c0.9,0.9,2.2,1.3,3.4,1.3
				c1.7,0,3.3-0.8,4.2-2.3c1.6-4.1,5.7-6.8,10.1-6.8c0.2,0,0.5,0,0.7,0c2.4,0.2,4.7,1.1,6.5,2.8c1.8-1.6,4.1-2.6,6.5-2.8
				c0.2,0,0.5,0,0.7,0c4.4,0,8.4,2.7,10.1,6.8c1,1.4,2.5,2.3,4.2,2.3c1.3,0,2.5-0.5,3.4-1.3c0.4-0.4,1-0.6,1.5-0.6
				c0.7,0,1.4,0.3,1.8,0.9c0.4,0.5,0.6,1.3,0.4,1.9c-1.6,7-7.4,12.4-14.6,13.4C253.6,341.8,252.8,341.8,252,341.8z M241.6,335.2
				c2.8,2.7,6.5,4.3,10.4,4.3l0,0c0.7,0,1.4,0,2.1-0.1c6.1-0.8,11.1-5.4,12.5-11.4c-1.4,1.2-3.1,1.8-4.9,1.8c-2.6,0-4.9-1.3-6.3-3.4
				c0-0.1-0.1-0.1-0.1-0.2c-1.2-3.3-4.4-5.4-7.9-5.4c-0.2,0-0.4,0-0.6,0c-2.2,0.1-4.3,1.2-5.8,2.9c-0.2,0.3-0.5,0.4-0.9,0.4
				s-0.7-0.1-0.9-0.4c-1.5-1.7-3.6-2.7-5.8-2.9c-0.2,0-0.4,0-0.6,0c-3.5,0-6.7,2.2-7.9,5.4c0,0.1-0.1,0.1-0.1,0.2
				c-1.4,2.1-3.7,3.4-6.3,3.4c-1.8,0-3.5-0.6-4.9-1.8c1.4,6,6.4,10.5,12.5,11.4c0.7,0.1,1.4,0.1,2.1,0.1c3.9,0,7.6-1.5,10.4-4.3l0,0
				c0.1-0.1,0.3-0.3,0.4-0.5c0.2-0.3,0.5-0.4,0.9-0.4c0.3,0,0.7,0.1,0.9,0.4C241.2,334.9,241.4,335,241.6,335.2
				C241.5,335.2,241.5,335.2,241.6,335.2z"/>
		</g>
		<path class="st3" d="M266.6,326.4c-2.3,4.7-6.8,8.3-12.4,9c-5.2,0.7-10.1-1.1-13.6-4.5l0,0c-0.2-0.2-0.3-0.3-0.5-0.5
			c-0.2,0.2-0.3,0.4-0.5,0.5l0,0c-3.5,3.4-8.4,5.2-13.6,4.5c-5.6-0.8-10.1-4.3-12.4-9c-0.7-0.1-1.4,0.6-1.2,1.4
			c1.4,6.4,6.7,11.5,13.6,12.5c5.2,0.7,10.1-1.1,13.6-4.5l0,0c0.2-0.2,0.3-0.3,0.5-0.5c0.2,0.2,0.3,0.4,0.5,0.5l0,0
			c3.5,3.4,8.4,5.2,13.6,4.5c6.9-1,12.1-6.1,13.6-12.5C268,326.9,267.3,326.3,266.6,326.4z"/>
		<path class="st3" d="M220.2,302.2h-16.7c-1.1,0-2-2-2-4.5v3.8c0,2.5,0.9,4.5,2,4.5h20.1c1.1,0,2-2,2-4.5l-1.3-3.8
			C224.3,300.2,223.6,302.2,220.2,302.2z"/>
		<g>
			<path class="st3" d="M225.4,367.6c0,6.1-5,11.1-11.1,11.1l0,0c-0.2,0-0.4,0-0.6,0c1.9,1.4,4.2,2.3,6.7,2.3l0,0
				c3.1,0,5.9-1.3,7.9-3.3c-1.8-2.5-2.8-5.5-2.8-8.7L225.4,367.6z"/>
			<path class="st3" d="M255.5,367.7v1.3c0,8.3-6.8,15-15,15l0,0c-0.7,0-1.4,0-2.1-0.1c2.4,1.5,5.2,2.4,8.2,2.4l0,0
				c6.3,0,11.7-3.9,13.9-9.4C257.5,374.9,255.5,371.5,255.5,367.7z"/>
			<path class="st3" d="M290.1,305.7c-1.7,0-5.8,0-5.8,0s-1.6-4.3-5.6-7.2c0,0,1.6-2.4,1.6-3.5s0-14.7,0-14.7s-0.4-3.2-2.8-4.5
				l-7-3.4v24.1h3.3v1.4c0,2.2-1.8,3.9-3.9,3.9h-13.3c-1.1,0-2-2-2-4.5v3.8c0,2.5,0.9,4.5,2,4.5h17.2v20.8c-0.2,0-0.3,0-0.5,0
				c0.2,0.1,0.4,0.3,0.5,0.4v0.7l-5.8-3.4v54c-0.5,0.1-1,0.1-1.5,0.1l0,0c-0.2,0-0.4,0-0.6,0c1.9,1.4,4.2,2.3,6.7,2.3l0,0
				c6.1,0,11.1-5,11.1-11.1v-18.7c1.5-2.5,2.8-5.7,2.8-9.7c0-10.8,0-19.3,0-19.3h3.7c0,0,2,0.3,2-2v-12
				C292.2,307.7,291.8,305.7,290.1,305.7z M268.6,378c2-0.7,8.5-3.7,9-10.1C277.2,373,273.5,377.1,268.6,378z M277.6,367.9
				c0-0.1,0-0.2,0-0.2C277.6,367.7,277.6,367.8,277.6,367.9z"/>
		</g>
		<path class="st3" d="M177.6,380.7c0,0-13,7.9-11.7,16.3s13,8.4,18.3,8.4S163.4,405.3,177.6,380.7z"/>
		<path class="st3" d="M195.4,426.4c0,0-14.7,0-20.6,0c-5.8,0-15.7,0-16.3-5.8C158,417,159,416,159,416s4.3,6.3,16.8,6.3
			c12.4,0,20.8,0,20.8,0L195.4,426.4z"/>
		<path class="st3" d="M303.8,380.7c0,0,6.3,13.2,1.3,30.2c8.4,0,10.4-8.9,9.9-12.4C314.5,394.9,309.9,385,303.8,380.7z"/>
		<g>
			<line class="st9" x1="207.6" y1="339" x2="207.6" y2="336"/>
			<path class="st2" d="M207.6,340.2c-0.7,0-1.2-0.5-1.2-1.2v-3c0-0.7,0.5-1.2,1.2-1.2s1.2,0.5,1.2,1.2v3
				C208.7,339.7,208.2,340.2,207.6,340.2z"/>
		</g>
		<g>
			<line class="st9" x1="207.6" y1="361.6" x2="207.6" y2="343.6"/>
			<path class="st2" d="M207.6,362.8c-0.7,0-1.2-0.5-1.2-1.2v-18c0-0.7,0.5-1.2,1.2-1.2s1.2,0.5,1.2,1.2v18
				C208.7,362.3,208.2,362.8,207.6,362.8z"/>
		</g>
		<g>
			<line class="st9" x1="254.9" y1="362.9" x2="254.9" y2="361.9"/>
			<path class="st2" d="M254.9,364.1c-0.7,0-1.2-0.5-1.2-1.2v-1c0-0.7,0.5-1.2,1.2-1.2s1.2,0.5,1.2,1.2v1
				C256.1,363.5,255.5,364.1,254.9,364.1z"/>
		</g>
	</g>
</g>
<g id="Layer_2">
	<g>
		<defs>
			<rect id="SVGID_1_" width="1366" height="768"/>
		</defs>
		<clipPath id="SVGID_2_">
			<use xlink:href="#SVGID_1_"  style="overflow:visible;"/>
		</clipPath>
		<path class="st12" d="M1530.1,730c-35.6,0-64.5-28.9-64.5-64.5v-94c0-35.6-28.9-64.5-64.5-64.5s-64.5,28.9-64.5,64.5v94
			c0,35.6-28.9,64.5-64.5,64.5s-64.5-28.9-64.5-64.5v-94c0-35.6-28.9-64.5-64.5-64.5s-64.5,28.9-64.5,64.5v94
			c0,35.6-28.9,64.5-64.5,64.5s-64.5-28.9-64.5-64.5v-94c0-35.6-28.9-64.5-64.5-64.5s-64.5,28.9-64.5,64.5v94
			c0,35.6-28.9,64.5-64.5,64.5s-64.5-28.9-64.5-64.5v-94c0-35.6-28.9-64.5-64.5-64.5s-64.5,28.9-64.5,64.5v94
			c0,35.6-28.9,64.5-64.5,64.5s-64.5-28.9-64.5-64.5v-94c0-35.6-28.9-64.5-64.5-64.5s-64.5,28.9-64.5,64.5v94
			c0,35.6-28.9,64.5-64.5,64.5s-64.5-28.9-64.5-64.5v-94c0-35.6-28.9-64.5-64.5-64.5s-64.5,28.9-64.5,64.5v94
			c0,35.6-28.9,64.5-64.5,64.5v230.4H1539L1530.1,730z"/>
	</g>
</g>
</svg>
