<svg id="logo" xmlns="http://www.w3.org/2000/svg" viewBox="0 0 124.5 50.38"><title>Artboard 1</title><path id="r1" d="M28.19,12.46l-1,4.73a1.07,1.07,0,0,1-1.1.85h0l-.66,0a5.74,5.74,0,0,0-4.93,2.17,10.06,10.06,0,0,0-1.43,3.75l-1.9,9A1.38,1.38,0,0,1,15.81,34H11.38l4.24-20A1.38,1.38,0,0,1,17,12.93h4.15s1.32,1.31,2.05.79a7.29,7.29,0,0,1,4.31-1.3h.26Z"/><path id="a" d="M37.85,21.19a9.82,9.82,0,0,0,2.3-.48,2.21,2.21,0,0,0,1.51-1.57q.27-1.3-.52-1.79a5,5,0,0,0-2.53-.49,4.18,4.18,0,0,0-3,1A4.76,4.76,0,0,0,34.78,19a1.37,1.37,0,0,1-1.2.76H29.12a10.35,10.35,0,0,1,2.52-4.55q2.79-2.79,8.11-2.79A11.63,11.63,0,0,1,45.6,13.8Q48,15.17,47.19,19l-2.07,9.67q-.21,1-.46,2.44a2.86,2.86,0,0,0,0,1.47,1.17,1.17,0,0,0,.19.29,1.23,1.23,0,0,1,.34,1.06l0,.11h-6a5.62,5.62,0,0,1-.1-1.2q0-.56.12-1.28a15.67,15.67,0,0,1-3.08,2.11,9.25,9.25,0,0,1-4.26,1A5.69,5.69,0,0,1,27.48,33Q26,31.41,26.6,28.41a7.85,7.85,0,0,1,4.2-5.63,15.61,15.61,0,0,1,5.13-1.35ZM40.39,25a.66.66,0,0,0-.88-.75h0a10.45,10.45,0,0,1-1.55.38l-1.28.23a9.59,9.59,0,0,0-2.67.75A3.28,3.28,0,0,0,32.23,28a2.09,2.09,0,0,0,.34,2,2.43,2.43,0,0,0,1.77.63,6.68,6.68,0,0,0,3.5-1,5.74,5.74,0,0,0,2.38-3.81Z"/><path id="p1" d="M71.4,23.2a15.74,15.74,0,0,1-4.31,8.49A10.08,10.08,0,0,1,60,34.62a5.63,5.63,0,0,1-3.91-1.26,5.81,5.81,0,0,1-1.35-2l-2.11,9.9a1.38,1.38,0,0,1-1.35,1.09H47L53,14a1.38,1.38,0,0,1,1.35-1.09h4.17s.92,1.48,1.7.95a8.26,8.26,0,0,1,4.66-1.41,6.6,6.6,0,0,1,5.68,2.73Q72.52,17.92,71.4,23.2ZM62.7,17.28A5.29,5.29,0,0,0,58,20.13,13,13,0,0,0,56.59,24q-.77,3.68.85,5.17A3.75,3.75,0,0,0,60,30a5,5,0,0,0,3.89-1.78,10.08,10.08,0,0,0,2.21-4.74,7.52,7.52,0,0,0-.19-4.31Q65.2,17.28,62.7,17.28Z"/><path id="p2" d="M95.6,23.2A15.74,15.74,0,0,1,91.3,31.7a10.08,10.08,0,0,1-7.07,2.92,5.63,5.63,0,0,1-3.91-1.26,5.81,5.81,0,0,1-1.35-2l-2.11,9.9a1.38,1.38,0,0,1-1.35,1.09H71.16l6-28.3a1.38,1.38,0,0,1,1.35-1.09H82.7s.92,1.48,1.7.95a8.26,8.26,0,0,1,4.66-1.41,6.6,6.6,0,0,1,5.68,2.73Q96.72,17.92,95.6,23.2Zm-8.69-5.92a5.29,5.29,0,0,0-4.72,2.84A13,13,0,0,0,80.79,24q-.77,3.68.85,5.17a3.75,3.75,0,0,0,2.57.87,5,5,0,0,0,3.89-1.78,10.08,10.08,0,0,0,2.21-4.74,7.52,7.52,0,0,0-.19-4.31Q89.4,17.28,86.91,17.28Z"/><path id="r2" d="M114.06,12.46l-1,4.73A1.07,1.07,0,0,1,112,18h0l-.66,0a5.74,5.74,0,0,0-4.93,2.17,10.06,10.06,0,0,0-1.43,3.75l-1.9,9A1.38,1.38,0,0,1,101.68,34H97.25l4.24-20a1.38,1.38,0,0,1,1.35-1.09H107s1.32,1.31,2.05.79a7.29,7.29,0,0,1,4.31-1.3h.26Z"/></svg>