<svg id="Layer_1" data-name="Layer 1" xmlns="http://www.w3.org/2000/svg" viewBox="0 0 649.42 151.52"><defs><style>.cls-1{fill:#fff;}</style></defs><title>logo_spotworm_white</title><path class="cls-1" d="M89.65,46.64c-.93.75-.75,2.43-.75,3.18,0,.19.19.75,0,.93a9.11,9.11,0,0,0-1.31,6.54v.93a5.82,5.82,0,0,1-.19,2.06A3.63,3.63,0,0,0,84.79,62c-.56,1.31-2.8,1.87-4.11,1.31l-2.43-1.49c-2.06-1.68-3.55-2.62-4.11-3.18A12.56,12.56,0,0,1,71.71,55c-.19-.19-.37-.93-.93-1.12a4.1,4.1,0,0,1-1.31-3.18c0-.75,0-1.31.19-1.49,1.12-.56,1.68-1.68,1.87-3.36.19-2.43.93-4.67,1.12-6.35a65.3,65.3,0,0,0,.75-9,14.32,14.32,0,0,0-.19-3.36L73,26.27c-.56-1.49-.56-1.68-2.06-1.49a31.69,31.69,0,0,1-4.3,0l-1.49.37a5.8,5.8,0,0,1-3.18.56,4.46,4.46,0,0,0-1.68.56l-7.29,3c-2.8,1.49-4.86,3-6.54,3.92a25.41,25.41,0,0,0-6.35,4.3,105.33,105.33,0,0,0-9.34,8.41c-.56.56-1.49,2.06-3.55,4.86-1.31,1.68-2.8,3.74-4.11,5.79a10.78,10.78,0,0,0-.93,2.62,18.81,18.81,0,0,0-.56,4.67c0,.75.19,1.87.37,3.36a2.22,2.22,0,0,0,1.49,1.87,13.84,13.84,0,0,0,5.23,2.06c.19,0,1.31.19.75,1.12a6.45,6.45,0,0,1,2.24.19l2.06.93c.19,0,.75-1.12,1.31-.19l-.75.75c.75,0,1.87.19,2.06,0a1.2,1.2,0,0,1,1.68.19c0,.56.19.93.75.93l-.75-.93c.56,0,1.68-.19,1.87,1.12h.93c.56-.56.93-.37,1.12.37l.93.93v-.93a14.07,14.07,0,0,0,2.8.75v.37H44.44c.56.56,1.49,1.49,2.24.19h.19c.19,0,.19.19.37.19L50.6,78.4l.19-.19a6.55,6.55,0,0,1,1.49.93l-.56.19h.56V79c1.68.19,2.62.75,3,2.06l.75-.19a4.52,4.52,0,0,1,2.43,1.12l1.31.75.75.37c.75.93,2.8,1.68,3.55,2.24,1.49.93,3.55,2.24,6.35,4.3.56.19.93.93,1.87,1.49,2.43,1.31,4.11,3.36,6.17,6.17,2.43,3.55,3.36,6.73,3,9.9l.19,3.55v.37c-.75,1.31-1.31,5.42-2.24,7.1l-3,5.61a3,3,0,0,1-.75,1.31,56.26,56.26,0,0,0-3.55,4.67c-1.31,2.05-3.55,3.55-5.79,5.79l-.75.75-3.36,3.36-3.36,2.24a32.55,32.55,0,0,1-4.3,2.05,7.51,7.51,0,0,1-2.06,0c0,.56-.75,1.12-2.06,1.68-1.68.19-7.47,1.87-11.4,1.87A9.77,9.77,0,0,1,33.23,146a7.44,7.44,0,0,0-2.8-1.31,13.56,13.56,0,0,1-3.74-3.18c-2.62-2.24-4.11-3.36-4.3-3.92-.93-1.31-1.31-2.62-.93-3.55-1.31-1.31-1.87-2.24-1.87-3.18a5.52,5.52,0,0,1,1.31-3c1.68.75,2.06,1.31,2.62,3.74h1.31l.19.19a2.66,2.66,0,0,0,2.8,2.05,21,21,0,0,0,7.66-1.12l2.24-.37a1.41,1.41,0,0,0,.75-.37L42.19,130l-.37,1.31c.56-.19,1.31-.93,1.87-.75.19.19.37,0,.56-.37l3.18-2.24c2.06-1.49,3.92-2.43,4.86-3.36,1.49-1.68,4.48-4.3,6-5.79,0-.19-.19-.75,0-.93,1.31-.93,2.06-3.74,2.62-4.48a10.47,10.47,0,0,0,1.87-2.8A18.23,18.23,0,0,0,64.24,107c.19-.56.93-2.24,1.87-5.23a2,2,0,0,0,0-1.5A9.39,9.39,0,0,1,65.73,98c0-.56-.19-1.68-.37-3.18a2.91,2.91,0,0,0-1.12-1.49c-2.06-1.31-4.86-2.24-8.41-3.74l-3.55-1.49a42.58,42.58,0,0,0-5.79-1.87l-3.92-1.31L40.51,84l-1.68-.56a37.35,37.35,0,0,1-3.92-.75l-7.1-2.43A24,24,0,0,1,16.22,72L12.3,66.63a12.75,12.75,0,0,0-2.05-3c-1.31-1.31-1.87-3.36-2.06-6.17A9.24,9.24,0,0,1,8,54.67a8.87,8.87,0,0,1,.75-4.3,65.45,65.45,0,0,1,3-6.17,11,11,0,0,1,2.62-3.36c.93-.75,1.68-2.43,2.24-3.18a29.48,29.48,0,0,1,2.24-2.8l2.8-2.06a.4.4,0,0,0,.37-.37l-.19-.37a38.63,38.63,0,0,0,5-3.74c.56-.19.93-1.68,1.49-1.87a6.59,6.59,0,0,0,2.06-1.68c.19-.56,1.12-.93,1.68-1.49a4.14,4.14,0,0,0,1.68-.19l.56-1.68A6,6,0,0,0,35.47,21a6.53,6.53,0,0,0,4.67-3.18c.19-.56.56-.37.75-.56l2.06-1.12c.56-.19,1.87-1.31,3.18-1.12.19.19,1.12-.56,1.68-.75a3.91,3.91,0,0,1,.75-1.12c-.19-.19-.37-.37-.56-.37l.37-.37a15.75,15.75,0,0,1,3.55-.37h.56c.19,0,.75-.19,1.49-.37a4.71,4.71,0,0,1,3.18-1.12c.19,0,1.31.19,3.55.56,2.43.56,4.3.37,5.6.93A15.56,15.56,0,0,1,70,13.94a3.75,3.75,0,0,1,1.49.75l2.24,1.68c1.49,1.68,1.49,1.68,3.74,2.24V17.49c1.68.19,3.18,1.31,4.86,3.36.19.56.93.93,1.49,1.87a30.58,30.58,0,0,0,3.36,4.11l.56,1.87.93,3.55c.19.56,0,.93.19,1.49l.75,6.17A4.72,4.72,0,0,1,89.83,42c-.37,1.87-.56,2.8-.56,3S89.46,45.7,89.65,46.64ZM12.11,52.43Q11,52.15,11,53.55ZM26.87,34.49a5.16,5.16,0,0,0-2.62,2.8H23.14l-.75,2.06c-.75-.56-.56.75-1.12.75h-.19c-.75,0-1.12.75-.56,1.49l.37,1.49c-.56,0-.75-.19-.75-.37-.19-.19-.19-.75-.37-.93A3.91,3.91,0,0,1,19,42.9l-1.31-1.12a7.93,7.93,0,0,1-2.43,3.74c-.93.75-2.62,3.36-3.36,4.11a1.46,1.46,0,0,0,.19,2.06l1.12-1.87.56,1.87.56-.19a11.7,11.7,0,0,0-.19-3.18l1.68-2.24,1.49-2.43,1.12,1.68a4.63,4.63,0,0,0,2.43-2.24c.19-.19,1.31-.93.75-1.87.93-.19.75-1.31.75-1.87l.75.93a19.19,19.19,0,0,0,2.62-2.8A4.43,4.43,0,0,1,28,35.8c0-.19.19-.37.37-.56ZM13.8,53.18l.19.19c0-.19,0-.19.19-.19Zm1.12-3.36v.37h.19v-.37Zm1.87-3.55-.19.37h.19l.19-.19Zm2.06-4.86H19v-.19h-.37Zm.93-1.12h-.19l.19.19Zm7.47-3,.37-.19v-.19c-.19,0-.37.19-.56.37Zm2.06-4.11-.75,1.31c.75,0,1.12-.19,1.12-.75Zm1.12-3.92-.56.93c.56,0,1.31.75,2.06,0Zm1.87-3.55v.19h.37v-.19ZM33.6,30l-.75.37.75-.19Zm2.05-8.22V21.6l-.37.19.19.19Zm.19,1.49V23.1l-.19.19.19.19Zm1.31,118.45h.19c.19,0,.19,0,.19-.19ZM37.9,22.16l.37.19.37-.56-.19-.19Zm3.55,114.9-.37.37v.19ZM52.84,133l-.75-.75-1.68.37-.37-.75-1.12-.56a2.77,2.77,0,0,0-.56,3,5.2,5.2,0,0,1-1.68.93l.75-1.5c-1.68,0-2.06-.19-2.24,1.87a.69.69,0,0,0-.56-.19c-.56,0-1.12.75-1.68.56-.19,0-.19.56-.37.75.56.19.75.56.56.93-.56.19-1.68.37-1.87,1.31l.37.19a56.7,56.7,0,0,0,5.42-1.87c.56-.19,1.12-.75,1.68-.93a50.54,50.54,0,0,0,4.86-3,1.93,1.93,0,0,0,.37-2.24ZM43.31,19.17l.93-.37c0-.19,0-.19-.19-.19Zm.37,110-.37.37Zm.75-112.1h.37c0-.19-.19-.19-.37-.19Zm4.3,61.09-1.12-.56-.19.19C48.36,78,48.92,78.21,48.73,78.21Zm.37.19c.56.56,1.12.56,1.49,0Zm.56,54.18a.69.69,0,0,0-.19.56h-.19a.69.69,0,0,1,.19-.56Zm7.1-4.11c-.75,0-1.31,1.5-1.87,1.68v1.5l1.87-1.31q1.12-.84.56-1.68Zm1.49.19-.19-.19v.37Zm.56-8v-.56h-.19a.69.69,0,0,0-.19.56Zm.37,6-.37,1.12.56.19c0-.19.19-.56.37-1.31Z" transform="translate(-8 -3.29)"/><path class="cls-1" d="M172.23,37.29c0,.37-.37.75-1.12,1.31l-1.31.75,2.06-.19a4.39,4.39,0,0,0-.37,1.49v.56c0,.93-.37,1.49-.93,1.68,0-.19-.19-.93-.37-2.24l-.75,1.12A3.8,3.8,0,0,1,167.75,45c-.19,0,0,.93,0,1.12a.69.69,0,0,1,.56.19l.93-2.24q1.4.56,1.12,1.68c-.19.93-1.68.93-2.43,1.12.19,1.31.37,2.06.37,2.24.19.19,0,.37-.37.75v.37c0,.75-.93,1.31-1.12,1.49v-.19l-1.12.37.19-.37-.37.19-.56,1.12.93.37-1.31,2.06-.93-.37a3.88,3.88,0,0,0-1.49,3l1.68-2.06v.56c0,.93-.56,1.31-1.49,1.49l-.37.75-.19.19.19-.19.93.93-1.12.93c-.19,1.49-.37,1.49-1.68.93l.56-.37-.19-.37-.37.75c-.56.75-.93,1.31,0,1.87-.19.56-1.49.75-.75,1.68L158,66.81c-.19.56-.75.75-.75.93a.69.69,0,0,1,.19.56c0,.56-.93,1.31-1.12,2.05,0,.56-.37.75-.93.75a7.06,7.06,0,0,0-2.24,2.8l-1.68,3.18c-1.12,0-1.68.56-1.68,1.49-.19-.19-.37-.19-.93-.19l-.19.19-.56,2.06c-.56,1.49-2.62,1.87-2.8,1.87l.19.37v.19l-.19-.37.19.37h-.19l-3,3.74-2.62,2.43a19.21,19.21,0,0,0-2.62,2.8c-.19.56-.93.37-.93.56a4.44,4.44,0,0,1-.56,1.31c0,.19-.19.19-.75.19l-.75,1.12c-.19.56-.56.93-.75.93-1.68.19-3,2.06-3.55,2.62a4.79,4.79,0,0,1-3,1.87A5.28,5.28,0,0,1,124.4,104c-3.55,3-5.79,4.86-6.91,5.42-.75.56-1.31,1.49-2.06,2.05l.37-4.48-.37.19c-.37.37-.56.56-.37.56a6,6,0,0,0-.56,3v.19c0,.56-.93,1.68-.37,2.62a5.81,5.81,0,0,0-.37,1.31c-.19,2.8-.56,4.86-.75,6.54,0,.75-.19,2.05-.37,3.74,0,.75-.75,2.05-.19,3,.19.19,0,.56-.37,1.31l.56.56a1.93,1.93,0,0,0-.75,1.49,2.68,2.68,0,0,0,.75,1.87c-.75,1.68-1.12,2.8-.93,3.36,0,.19-.19.93-.37,2.24,0,.19.37.37.37.56l-.37,6.35.19,4.48c0,1.31-.37,1.87-1.31,2.05-.75.19-1.49,2.24-2.24,2.43l-2.62-.37-1.12-1.68a8.94,8.94,0,0,0-2.05-1.49,1.59,1.59,0,0,1-1.31-1.31l-1.12-3.36c-.19.56-.56,1.68-1.31,1.49h.19l-1.12-1.31V147a8.1,8.1,0,0,0-.75-2.05,12.14,12.14,0,0,0,1.12-6.73l-.19-2.24.19-2.24a9.85,9.85,0,0,1,.93-2.8,8.52,8.52,0,0,1-.75-4.11,17,17,0,0,1,1.68-6.91l-.56-.75c.19-2.24.37-3.74.37-4.48a12.36,12.36,0,0,1,.56-3.36c.19-1.31.37-2.06.37-2.24a5.56,5.56,0,0,0-.93-2.62l-.93-1.87a10.77,10.77,0,0,0-1.49-2.24l1.12-1.87c2.24-.19,3.74-.75,3.92-2.8h.37c0-.19-.19-.37-.56-.75.75-.19,1.12-.75,1.12-1.87,0-.19-.19-1.49.37-2.06,0-.19-.37-.56-.37-.75.75-1.49.75-5.23,1.31-6.73a13.4,13.4,0,0,0,.37-3.18v-.37c0-.75.75-2.24.56-3l-.19-1.49c0-.19.19-.93.37-1.87a27.44,27.44,0,0,0,.93-5.42,7.56,7.56,0,0,1,.56-1.87l-1.12-1.12c0-.19,0-.37.19-.37a1.54,1.54,0,0,0,.93-1.87c0-.75.75-2.62,0-3.55a5.25,5.25,0,0,0,.56-2.8,9.27,9.27,0,0,1,.19-2.8,2.35,2.35,0,0,1,.75-1.31l-1.12-2.62a8.89,8.89,0,0,1,.93-2.62l-.37-.19a37.91,37.91,0,0,0-2.43,4.86,4.72,4.72,0,0,0-.19,2.05l-.56,1.68.37.56a6.76,6.76,0,0,0-3.18,5.6l-1.12-.19-1.12,2.06-2.06.75c-.75-.56-2.43-1.31-3.18-2.24a4,4,0,0,0-1.68-1.49c-1.68-.56-2.43-2.06-3.18-3.55-.93-1.68-1.49-4.48-1.68-8.59A5.94,5.94,0,0,1,90,47.2c.19-.19.19-.37.19-.93l-.56-.93,1.49-3.55.37.19v1.12l1.12-2.62,2.24-3.74H94.7c.37,0,.56,0,.56-.19a69.57,69.57,0,0,1,7.1-8.59c-.19.19.75-.93,2.43-3l.93-.93a10.85,10.85,0,0,1,3.36-3.18c.37.37.75.37,1.31-.19l-1.31.19c1.31-2.06,1.87-2.62,3.55-2.43a1.91,1.91,0,0,0,1.5-.93l-1.12.37-.19-.37,1.49-1.31c1.49-1.31,2.8-1.87,3.74-2.62a2.84,2.84,0,0,1,2.24-.56c.19,0,.75-.93,1.31-.75,1.31-1.49,4.86-2.24,5.79-3,1.68-.93,5.42-1.68,7.47-2.43a7.53,7.53,0,0,0,2.06,0,11,11,0,0,1,2.62-.37l5-.19a19.43,19.43,0,0,1,5.42.93,29.48,29.48,0,0,0,3,1.31c.56.19,1.68,1.12,4.11,2.43,1.68.93,3.55,3.18,4.3,3.92,1.49,1.49,3.92,4.48,5.42,6a9.36,9.36,0,0,0-1.68-4.67l1.12-.19c.75,1.31,2.8,3.18,3,5.42q0,2.24,2.8,3.92v.19c0,.56-1.12,1.5.37,2.24l-.75.75v4.3c0,.93,0,1.31.19,1.49A6.36,6.36,0,0,1,172.23,37.29ZM90.77,44.77V45l.19-.19ZM92.83,39l-.37.75.19.75-.93.37.75-1.31a.69.69,0,0,1,.19-.56Zm.75-1.31c0-.56.19-.75.75-.93ZM95.07,36l-.37.75h-.37c.19-.19.19-.37.19-.75Zm3.36,97.52v.19h.19v-.19Zm0,8.22h.19l-.19-.19Zm1.31-75.85h-.19c0-.19,0-.19.19-.19Zm.56,72.3v.37l.19-.19Zm.75-22.61-.19.19c.19,0,.19,0,.19-.19.56.37.75.75.19,1.31-.37.56-.37.93.19,1.31a2.53,2.53,0,0,0,.19-3C101.42,115.39,101.24,115.58,101,115.58Zm-.19,8.78v.56l.37.19v-.75Zm.19,8.78v-.37c0,.19,0,.19-.19.19Zm.56-11.77-.19-.37-.19.37c0,.19,0,.19.19.19S101.61,121.55,101.61,121.37Zm-.19,5,.56-.56-.19-.19-.37.75v0Zm.56-12.89c0,.19,0,.19-.19.19.19.19.37.37.37.56Zm.75-2.43h0a.4.4,0,0,0-.37-.37l-.19.19Zm-.19,7.1-.19.19h.19Zm1.87-13.26c-1.31-.75-1.31.37-1.31.56Zm-.19,26.9h-.75V132l.75-.19c.56.19.75,0,.56-.93A1.71,1.71,0,0,0,104.22,131.83Zm1.12-7.85-.19.19h.19Zm1.49,13.26-1.31.93,1.31.19Zm-.56-23.54.19-.19h-.19Zm.75,13.45c0-.19,0-.19-.19-.19v.19c0,.19,0,.19.19.19Zm.93-3.74.37-.19-.56-.75c0,.19,0,.19-.19.19Zm.75,13.45q-1.68.28-.56,1.12Zm-.93-17.75v.19c.19,0,.19,0,.19-.19Zm.93-5-.37-.37-.37.19.37.37Zm-.37,2.06v.19l.19-.19-.19-.19Zm.37,9.53.56-.56-.37-.19Zm.56.37-.37.93.19.75a.69.69,0,0,1,.56-.19Zm2.24-106.12-.19-.37q0,.28-.56.56Zm1.31,110.23a.33.33,0,1,1,.37.37Zm3.74-110c0-.19.19-.37.37-.56a4.07,4.07,0,0,1,1.49-.93l1.68-1.12a10.56,10.56,0,0,0,3-1.68l.75-.56c1.68-.19,3.55-2.06,4.3-2.62l.19.19,5-1.68c.75-.19,2.06-1.12,3.36-.93.19,0,.37-.19.75-.56.56-.19,2.43-.19,3.36-1.12a8.5,8.5,0,0,0-2.62.19l-.75.93-3.55-.37c-1.68,1.31-2.43,1.49-3.74.75-.93,1.68-2.06,2.06-4.86,2.62a.69.69,0,0,1,.19.56l-5,3c-.56.37-.75.75-.37,1.31h-.19c-.19,0-.93-.56-1.49.19-1.12.56-1.68,1.31-1.49,1.87l-.37.19v.37h-.93l-.75.56h-.56a2.66,2.66,0,0,0-1.12,2.24Zm-2.8,100.7a12,12,0,0,1,.37-1.87C114.13,119.13,115.25,120.25,113.75,120.81Zm.19,2.05V123h-.19v-.19Zm1.31-106.31h.19l-.19-.19-.19.19Zm.19,96.4h-.37a13.8,13.8,0,0,0,.37-1.5Zm1.49-7.29L121,104H119l.93-.93-.19-.37L117.86,104a3.61,3.61,0,0,0-.93,1.68,2.14,2.14,0,0,0,0,1.12c0,.19.37.37.93.75Zm.19,2.8-.19.19.19.19c0-.19,0-.19.19-.19C117.12,108.66,117.12,108.66,117.12,108.48Zm.19-11.58.19-.75c-.19,0-.37,0-.37.19l.19.56c0,.19,0,.19.19.19Zm.19-1.49V95l-.19.19Zm1.49-5.6v-.19l-.19.19-1.12,1.12a1,1,0,0,0,1.12-1.12Zm-.56,9.71-.37.37-.19.19.19-.19.56-.19Zm-.19-6h-.19v.19h.19Zm.19-75.85c0,.19,0,.19.19.19l-.19.19Zm.75,88.93-.19-.19v.19Zm30.27-88.18c-3.55,0-7.47,1.31-12.14,3.55L132.81,24l-2.62,1.49-5.6,3.92A2.61,2.61,0,0,0,123.09,33c.19.56,1.12,2.24.93,3.18-.19,1.31.56,4.3,0,5.6v.37c0,.93.56,2.06.56,3a2.28,2.28,0,0,1-.75,1.68l.75.56c-.37,1.12-.56,1.68-.37,1.87a6.06,6.06,0,0,0,.37,1.12c0,.56-.56,1.31-1.49,2.05l1.12.56-1.31.93.75.75a10.77,10.77,0,0,0-.19,2.8c0,.93-.56,3.36-.37,4.86-.93.93-1.12,2.62-.93,4.67,0,.56,0,.93-.19,1.12-.75.19-.56,1.31-.56,1.87l.93.75.37.37c0-.19-.19.19-.37.93L122,71.3l-1.31.19c.56.56.75.93.75,1.12s-.37.56-1.12,1.31l2.43-.56a2.58,2.58,0,0,1-2.62,1.87l-.19,4.48a2,2,0,0,0-.37,2.24h.19a6.67,6.67,0,0,0-.37,3.18l2.24-2.43,3-3,1.5-1.49,3-2.8a24.18,24.18,0,0,0,2.8-3.18c.56-.75,2.06-1.87,2.62-2.62l4.11-5,2.8-3.36,7.66-11,2.8-4.86c1.31-2.43,2.24-3.55,2.43-4.11l2.06-5c.56-1.49.75-3,1.31-4.48.19-.56.56-.93.56-1.49V27.77a7.11,7.11,0,0,1,.19-2.43c0-.75-.75-3,0-4.3A12.87,12.87,0,0,0,149.44,18.43Zm-29.52,65-.19-1.49h.75Zm-.19,9.72,2.06.56c0-.56,0-.93-.19-1.12.93-.19.93-.93.37-1.87Zm.56-12.7h-.19c-.19-.19-.19-.37-.19-.75Zm2.24-3.55-2.24.37c.19-.56.56-.75.75-1.31A2.56,2.56,0,0,0,122.53,76.9ZM120.67,79h-.37v-.19c0-.19,0-.19.19-.19ZM121,95.77l-.37.19Zm1.12,5.79v-.37h.75c-.19-.37-.37-.37-.75,0-.93-.19-1.12-.19-1.12,1.12Zm-.93-87.06.19.19V14.5ZM121.6,95l-.37.37c.19,0,.37-.19.56-.37Zm.19-8.22c-.19-.19-.19-.19-.37,0V87l.19.19Zm1.31-20.92v1.31h-.19V65.88Zm0-2.06h.19l-.19.19ZM125,83.44l-1.68,1.87.93.56Zm-1.12,6h-.19v.19Zm.37,4.67v.19c0-.19,0-.19.19-.19Zm0,3.92c.93.37,1.31.93,1.31,1.49-.19,0-.19,0-.19.19,0-.19,0-.19.19-.19a1.25,1.25,0,0,0,.19-1.87Zm.37-4.3v0Zm3.18-11.58-.75-.19-.75-.19c-.56,0-1.12,1.12-1.31,1.31h.37c.75,0,1.68.56,1.68-.75Zm-1.12,4.3c-.93,0-1.49.37-1.49,1.31A1.81,1.81,0,0,0,126.64,86.43Zm-1.31,6.73v.19l.19-.19Zm.75-76.79,1.68-.93-.19-.37a5.17,5.17,0,0,0-1.68.93Zm.19,72.86.19.19c0-.19.19-.19.37-.19l-.19-.19Zm.75,7.1-.75.56.19.37.75-.56Zm-.19-15.69h0Zm1.31-68h0Zm1.49,66a1.26,1.26,0,0,0-1.12,1.68Zm-.93,20.36-.19.19h.19Zm.37-4.11V95l.19-.19Zm.37-6,.19.19-.19-.37c0,.19,0,.19-.19.19Zm.93-8.22v.19l-.75.93a.82.82,0,0,0,.93-.19Zm-.56-2.06c.93,0,1.49-.37,1.49-1.31C130.38,77.28,130,78.4,129.82,78.58Zm1.12,15.13-.19-.37-.56.93Zm1.49-9.34c-1.12.19-1.68.56-1.87,1.49Zm0-9v.37c-.56,0-.93.37-1.12,1.31l1.12-1.31.19-.19Zm-.19-.19v0Zm1.12,3L133,78a.69.69,0,0,1-.19.56Zm2.24-6.35-1.31,1.49c-.19,0-1.68,0-1.12,1.31a1.24,1.24,0,0,0,1.12-1.31A1.6,1.6,0,0,0,135.61,71.86ZM134.3,84.19l.56-.56c-.19,0-.19,0-.19-.19ZM136,82.51l-.56-1.12-.37.19a3.91,3.91,0,0,0,.75,1.12Zm.56,6c-.19,0-.19,0-.19-.19l-.93.75.19.19c0-.19.19-.19.37-.19ZM138,69.24l-.37-.19-.56.93.37.19Zm-.37-56h.19l-.19-.37c-.19.19-.19.19,0,.19Zm.37,1.68-.19-.37-.19.19.19.19Zm.75,57-.19-.37a1.46,1.46,0,0,0-.75.75c.19,0,.19,0,.19.19Zm-.93,8,.37.37.19-.37Zm2.24-67.44.19.19c.37,0,1.12-.19,2.43-.37a.69.69,0,0,0-.19-.56Zm.93,63.9-.56.56c0,.19,0,.19.19.19l.19.19c-.19,0,.19-.19.93-.37Zm.19-61.28h.19V14.5h-.19ZM142,73.73l.19-.75-.56.75ZM142.9,72a.4.4,0,0,1-.37.37.69.69,0,0,0,.56-.19C143.08,72,143.08,72,142.9,72Zm.19-59v.19l.19-.19Zm.93-.93.19-.19H144Zm.37.93.19-.19h-.19Zm2.43-.93.56.19c.19,0,.19,0,.19-.19h-.75c-.56-.75-.93-1.12-1.68.19A4.15,4.15,0,0,1,146.82,12.07Zm-1.31,56.24a.4.4,0,0,1-.37.37.69.69,0,0,0,.56-.19Zm0-9.53h.37l.19-.19-.37-.37Zm0,12.14v.19h.19v-.19Zm1.31-12.14-.19.93.37.19c0-.56,0-.75.19-.93Zm1.12.37-.19-.19v.19Zm-.19.75.19.19V59.9Zm.37,4.3h-.19l.19.19Zm.37-9.34L149.62,53a2.65,2.65,0,0,0-1.49,1.68Zm2.06-42V13l1.31.75c-.56-.93-.93-1.31-1.49-1.31Zm0,38.11h-.19v.19ZM156,33.37h.37l-.19.19ZM158,67v-.19l.19.19Zm3.55-6.73-.19-.37-.19.19Zm3.18-44.47.37.37Zm1.68,33.26,1.12-.75v-.56c-.19.19-.75.19-1.49.19Zm1.12.75-.75.56.19.19Zm-.75,3.36L167,53v.19Zm.19-1.49.37.37h-.19Zm2.62-4.3-.19,1.68c-1.31-.93-.19-1.68-.19-1.87Z" transform="translate(-8 -3.29)"/><path class="cls-1" d="M233.51,75.59l-1.31,5.6A42.58,42.58,0,0,1,230.34,87a8.47,8.47,0,0,1-2.06,3.55c-.75.75,0,.93,0,1.49-.75.56-1.68,2.8-2.62,3.55l.19.56c0,.75-1.49,2.06-1.49,2.62-.19,1.49-.93,2.05-2.06,1.87,0,.93,0,1.49-.19,1.68h.19l-1.31.93c.19.19.19.37.19.75,0,.93-1.12,2.06-1.31,2.62l-2.43,3.55L213.9,115a12.77,12.77,0,0,1-3.92,3.55,29.54,29.54,0,0,0-2.43,2.43c-.19.19-.93,1.31-1.49,1.12h-.37c-.93,0-2.62.75-3.36.56v-.19h-.19l.19.19a5,5,0,0,1-3.36,2.05,18.41,18.41,0,0,1-4.48.56,16.48,16.48,0,0,1-3.18-.37c-.75-.19-1.49-.75-2.24-.93-.75,0-1.87-1.87-2.8-2.06-1.31-.19-2.8-2.05-3-2.24-.75-.75-1.31-2.06-2.05-2.8-1.68-1.31-3.74-5.23-4.67-6.17a1.58,1.58,0,0,1-.37-1.12l-.37-1.31c-1.68-2.43-2.62-5.23-3.74-8.78l-.56-1.87-.19-2.06v-.75a5.73,5.73,0,0,1-.75-3.18l.19-3q0-.56,1.12-1.68a6,6,0,0,1-1.12.37,39.67,39.67,0,0,1,.56-9.53l.75-2.24H173c0-.56.19-1.49.37-3a3,3,0,0,0-1.31-.75c.19-.19.56-.93.75-.93a1.18,1.18,0,0,0,.93-1.12c-.19,0-.37.19-.75.56,0-.19-.56-.75-.37-.93.19-.75.19-3.36,1.68-4.67-.19-.19-.19-.37-.19-.93,0-.19.19-.93.37-1.87.93-3.92,2.8-7.66,4.3-12.14L180.83,44c.93-1.49,1.49-2.8,2.06-3.74l1.49-1.68V38a2.88,2.88,0,0,1,1.87-3,5.4,5.4,0,0,1,2.62-3.74c1.49-3.55,5.42-5.79,6.73-7.1l1.12.56c-.19-.75-.37-1.12-.37-.93.19-.19.93-1.12,1.87-.37a3.8,3.8,0,0,1,4.67-1.87c1.68.75,3.92,2.06,6.91,3.74L212.21,27c1.31.93,3.55,1.49,4.48,2.05a13.41,13.41,0,0,1,5.23,3.74l.19.37c-.19,1.68,2.24,4.67,2.43,5.6,0,.56.56,1.68.37,2.62v1.12c0,1.12.37,1.68,1.31,1.87.56,0,1.12,1.87,1.87,2.05v.37c0,.75.93,1.31,1.5,1.87a17.8,17.8,0,0,1,3.55,9,40.2,40.2,0,0,1,.56,7.29c.19,2.24.37,3.92.37,5.23C234.07,70.36,233.89,72.23,233.51,75.59ZM172,80.27l-.37.75h.19l.56-.56Zm-.19,2.05-.19.19h.19Zm.37-8.78c.75.93-.19,1.87-.19,2.06C171.3,74.85,172,74.1,172.23,73.54Zm.19,2.62c-.56,1.31-.19,1.49.75,1.49Zm-.19,3h.19V79c-.19,0-.19,0-.19-.19Zm1.68-11.58v1.31l.37-1.31Zm.19,4.67-.19.19h.56Zm0,30.27v-.37l-.19.19ZM178,99.88l-.19.19H178ZM179,63.82c0,.19,0,.19-.19.19v.19l.19-.37q.84-.28,0-1.12Zm1.31-3.92v.19a3.52,3.52,0,0,0-.93,2.06c1.49-.75,1.49-.75.93-2.06Zm1.31-1.5-.75.19a.4.4,0,0,1,.37.37Zm0-.19a3.57,3.57,0,0,0,1.12-2.8A2.13,2.13,0,0,0,181.57,58.22Zm1.68-4.11-.37.19.37.37h.19Zm.37,57v.37c.19-.19.75-.19.93-.37Zm17-6.35,5.42-8a24.29,24.29,0,0,0,2.62-4.3,29.47,29.47,0,0,1,2.62-4.3c.56-.56,1.68-3,3.55-6.91h0c.56-1.49,1.31-5.6,3-7.29l.37-2.24c.19-1.68.75-3.18.93-4.86V65.51a9.37,9.37,0,0,0-.37-2.24c-.19-.19-.19-.37-.19-.93,0-.75.56-1.31,1.49-1.68l-1.49-.56a2.88,2.88,0,0,0,.37-3.36,3,3,0,0,1-.37-2.06v-.56c0-1.31-.56-3.55-.37-4.86-1.68-4.11-3.55-6.91-5.79-8.59-.19-.19-1.12-1.49-1.87-1.68h-.19a9.1,9.1,0,0,0-2.06.75c-.19,0-1.31-.19-1.49.75-1.31.56-3.18,2.62-4.11,3.18-.19,0-.56.75-.75.93l-1.49,1.68-1.87,2.06c-.56,1.31-3,4.48-3.18,6.54-2.06,2.43-3.36,7.29-4.11,9.34a3.92,3.92,0,0,0-.56,2.24c-.19,0-.19,0-.19-.19v.19h.19c-.56.93-1.68,2.8-1.68,3.74v.37c0,.93-.93,3-.37,3.92l-.75.37c.19.19.56,1.12.37,1.31a50.1,50.1,0,0,0-1.49,6.17,65.09,65.09,0,0,0-1.12,6.54,14.29,14.29,0,0,1-.93,3.92c-.19,0-.19.19-.19.37-.19,0,.19.19.93.37-.19.56-.56.75-.56,1.49l.19,1.49-.56,1.68a21.7,21.7,0,0,1,.75,3.36c0,.93.37,1.68.37,2.43a9.28,9.28,0,0,1,.56,2.43c.19,1.31,1.31,2.8,1.5,3.74.37,1.68,1.31,2.05,2.8,1.49l2.06-1.31a7.1,7.1,0,0,0,4.11-3.92l.93.19c1.12,0,1.87-.75,2.06-2.06l.93-1.87c0-.19.19-.19.37-.19ZM184.94,43.83l.93-.56-.19-.37-.93.56Zm14.95,63.9-1.12-.19c-.56,0-.93.37-1.31,1.31Zm4.48-1.5c-.19,0,0,1.68-.93,1.87l-.56-.56-1.12,2.8c.19.19.37.37.56.37.93-1.31,2.8-3,3.55-4.3,0-.19.93-1.31,0-1.87C205.3,104.74,205.12,106,204.37,106.23Zm-1.68-6v.56h-.37a.69.69,0,0,0,.19-.56Zm1.12,4.67c.75-.93,3-3,3.18-5C205.68,101.19,204,103.62,203.81,104.93Zm5.42-2.62h-.37c-1.31,0-1.87.75-1.87,2.43Zm-1.87-9.15h-.19l.19-.19Zm0,6.17,1.31-1.49,1.12-1.31A5.33,5.33,0,0,0,211.47,93,27.24,27.24,0,0,0,207.36,99.32Zm.56-7.29.19-.37Zm.93-1.68.37-.75.37.19c-.19.19-.37.37-.37.56Zm2.06,12c-.19,0-.19,0-.19-.19-.19.19-.19.37-.19.75Zm4.3-13.83.19.75.37-.75h-.37v-.75l.75.37L217.26,87c.56-.93.75-2.06,1.31-2.8a2.28,2.28,0,0,0,.75-1.68,3,3,0,0,0-.56-1.68l-2.24,3.36c-.56-.56-.75-.37-.75.37l.93-.37a3.44,3.44,0,0,1-1.49,2.62V85.5L213,88.67c-.19.19.19,1.12.19,1.68a2.76,2.76,0,0,0-1.68,2.43,1,1,0,0,0,1.31-.56l.75-1.49.19-.19-.19-.19,1.31-.93c.19.19.19.37.19.75l.19-.75h-.37v-.93ZM212,100.07l-.19-.19-.37.75.19.19Zm.93-1.31-.37.19.19.19Zm.56-8.41v.37l-.37-.56h.37Zm-.19,12.14c1.12-.19,1.68-1.12,1.87-2.62Zm.56-21.11h-.19l.19-.37Zm.19-.56h-.19l.19-.19Zm.56,10.84-.37.37.19.19Zm-.19,4.48v0Zm.93-9.34-.19.93h-.37Zm-.56,4.67.37-.37H215ZM216,99.32h-.19c0,.19,0,.19.19.19Zm1.87-3.92-1.12,1.31,1.12.37V95.4A4.87,4.87,0,0,0,219.5,92,4.87,4.87,0,0,0,217.82,95.4Zm-.75-13.26h0Zm0-.19q1.12-.28.56-1.68Zm.56-12.14v-.19l.19.19c0,.19,0,.19-.19.19Zm0,21.11h.19l.19-.19c0-.19-.19-.19-.37-.19Zm1.87-17.19.93.56c-1.31.75-1.87,1.49-1.87,2.43a5.67,5.67,0,0,0,.56,2.06c.19.19,0,.37-.37.75-.19-.19-.37-.19-.75-.19v.19h.75l.37.75c2.06-2.43,3-5.6,2.8-9.9A6,6,0,0,1,219.5,73.73ZM218.38,67h-.19l.19-.19Zm0-2.43a1.7,1.7,0,0,1,0,2.24Zm.19,23.54h.37l-.19-.19Zm1.31-25-.19-.37-.37.19c0,.19,0,.37.19.37ZM219.69,76h.37v1.31a.69.69,0,0,0-.56-.19Zm.37,5.79h-.19l.19.19h.19Zm.75,8.78c0-.19-.19-.19-.37-.19v.37c.19,0,.19,0,.19.19Zm.56-20.92-.19-.75H221v.75Zm0,18.12c-.19.75-.37,1.12-.37,1.31h.37V87.74a3.76,3.76,0,0,0,1.68-2.06C221.37,86.24,221.37,87.18,221.37,87.74Zm0-5.79.19.19.56-1.49a.69.69,0,0,1-.56-.19Zm.93-26.72.37-.19-.56-2.24h-.37Zm-.19,3.36V58l-.19.37Zm.93,2.24c-1.49,0-.56,1.49-.56,1.68Zm-.37,4.86h-.37v.19l.19.19Zm-.37,36.81v0Zm.37-46c0,.56,0,.75.19.93h.19c0-.56,0-.75-.19-.93Zm.93,26.9-.37.19h.56Zm.19-7.85-.19.19h.19Zm.37-1.49a2.16,2.16,0,0,0,1.12-2.43C223.8,72.42,224,72.42,224.17,74.1Zm.75-16.44h.19c-.19,0-.19,0-.19-.19Zm.37,11a13.33,13.33,0,0,0,.93-3.74,13.9,13.9,0,0,0-.93-4.11Zm.19,7.1c-.19,0-.19,0-.19.19a.4.4,0,0,1,.37.37l.19-.19Zm.37-6c-.19,0-.19,0-.19.19l.56.56c.19,0,.19,0,.19-.19ZM229,87v.19c.19,0,.19,0,.19-.19Z" transform="translate(-8 -3.29)"/><path class="cls-1" d="M325.06,31.88h-1.68l-1.49,1.87L315,33.37h-.75c-1.68-.19-3-.37-3.74-.37-2.24,0-6.17.56-8.22.75l-6.73.56a46.89,46.89,0,0,0-9.34,2.06l-3.36.56c1.49.37,2.05,1.12,1.68,2.06-.19.19.19.93.19,1.49,0,1.5,0,1.68,2.06,2.43a13,13,0,0,1-2.06,2.24l-.37-.37c-.19,0-.19.19-.19.37a9.55,9.55,0,0,1-.37,4.48c-.19,1.68-.37,3-.37,3.74a29.37,29.37,0,0,1-.56,4.48l-.75.56c.19.19.19.75.19,1.5a12.39,12.39,0,0,1-.56,3.36c-.19.56,0,.93-.19,1.49l-.75,3,.37.93-.75.93c0,.19.19.56.37,1.31l-3.18,4.3.75.37a7.11,7.11,0,0,1,.19,2.43,48.57,48.57,0,0,1-.93,6.73c0,.56-.56.75-.75,1.31.93.93.93,1.49.37,1.68-1.68.93-1.68,2.43-2.24,4.86q-.56,5.6-.56,8.41c-.19.19-.19.37-.19.75-.75,1.68-.56,5-1.12,7.1,0,.56-.37,1.12-.37,1.68s.19,1.12.37,2.43l-.19,2.05a115.53,115.53,0,0,0-.75,13.64v.75l.19,3.36v.37l-.37,1.5.37.56c-.19-.19-.37-.37-.56-.37a.69.69,0,0,1-.19.56l.75-.19c.19.37,0,.75-.37,1.12a3.17,3.17,0,0,1,.75,2.43l-.19,3L269,143.6c-.93-.56-1.49-3.55-3-3.74l-.56,1.12c-.56,0-.75,0-.93-.19l-.37-2.05h-.37v.56l-.37,1.12a7.85,7.85,0,0,0-.56-2.62c-.93-.56-.56-2.05-.75-2.24,0,.19-.19.37-.37.56v-.37c0-1.31-2.8-2.24-2.8-3.55,2.43-1.31,1.87-3.92,1.87-4.67,0-1.31-.37-2.24-.37-3.55v-3.74c0-1.68-.19-4.3,0-7.47a45.07,45.07,0,0,1,.93-8.78c-.19-.19-.19-.37-.19-.93,0-.75.56-2.06.37-2.8V99.14a6.94,6.94,0,0,1,1.12-4.3,11,11,0,0,1-.37-2.62,6.46,6.46,0,0,1,.19-2.24c.75-3.36,1.12-5.79.93-7.29v-.37c0-.56.56-1.87-.19-2.62a4.25,4.25,0,0,0,.75-2.8,31,31,0,0,0,.93-5.79,9.17,9.17,0,0,0,.56-2.8,3,3,0,0,0-.56-1.49l.56-1.87a22.25,22.25,0,0,0,1.12-8.59c0,.19.19-.37.37-1.31l-1.31-.75,1.87-1.68L267,47.38a1.91,1.91,0,0,0,.93-1.49c0-.56-.37-2.06.37-2.8a1.39,1.39,0,0,0-2.06-.75c-1.31.56-4.3,1.31-6,2.24a6.25,6.25,0,0,0-2.43,1.31c-3.55,1.49-6.17,2.62-7.85,3.55h-.19L244.91,53l-1.12,1.12c-1.68,1.68-3.18,2.43-4.86,2.43-.56,0-1.31.93-1.87,1.12l-6.54-2.06c0-.19-2.05-.75-1.87-2.24l-1.87-1.12.19-1.31v-.19c-1.49-.56-1.68-1.68-1.68-3.36l.19-5.23a2.25,2.25,0,0,1,.93-.93A68.82,68.82,0,0,1,233,36.55l5.23-3c1.68-.93,4.67-1.87,5.6-2.43a.69.69,0,0,1,.56-.19c1.31-1.49,2.43-1.87,5.23-2.43.19,0,.37-.19.75-.56a3.9,3.9,0,0,1,1.12-.75h.37c1.49,0,3.36-1.31,4.11-1.49s2.05-.19,2.8-.93c.56-.75,2.24-1.12,2.8-1.31V25c.19-.19.56-1.87,1.87-1.31,1.68-1.68,5.42-2.24,6.35-2.43a44.16,44.16,0,0,1,6.54-1.31,6,6,0,0,1,1.12-.37c.19,0,1.31-.75,2.24,0q1.12-1.12,1.68-1.12a19.89,19.89,0,0,0,4.48-.19,32.71,32.71,0,0,1,4.3,0h.37a24.53,24.53,0,0,0,2.43-.56l2.06-.19h1.12l1.68,1.68q1.12-2,3.92-1.68a7.09,7.09,0,0,0,2.8,0l1.12-.19a5.73,5.73,0,0,1,2.43.93c.19.19.75,0,.93.19,1.68,0,5.79.56,7.85,2.62.93.93,1.31,1.68,1.12,2.43v.37a3,3,0,0,0,.93,1.87,6.66,6.66,0,0,1,1.87,2.06c.56,1.68,1.68,2.43,3.74,3.36.19.19.37.37.37.56Zm-77.91-.75h1.12v-.37l-1.12.37-.75-.93c-.93.56-1.12.93-.56,1.49ZM250,30l.19-.37h-.37c-.19,0-.19.19-.19.37Zm2.8-1.31-1.49.37.19.93a3.31,3.31,0,0,0,1.5-.93Zm1.87,0-.75-.19-.37.19c0,.37.19.37.37.19Zm3.18-2.06c-.56,0-.93.37-.93,1.12a1.36,1.36,0,0,0,1.31-1.12Zm3,1.68.75-.75-.19-.37-.93.56Zm4.48-2.06c-.19-.19-.75-.19-1.31-.19-.75,0-1.12.37-1.31,1.31Zm1.87.37V25.9c.19,0-.37.19-1.68.37ZM266.58,24h.19V22.72a.69.69,0,0,0-.56.19Zm1.31-.37a.4.4,0,0,0-.37.37l.19.19a.4.4,0,0,0,.37-.37Zm.56,18.12h-.19V42Zm5.79-17.37a1,1,0,0,0-.93-.93l-1.68.37a6.55,6.55,0,0,0-1.49-.93A6.13,6.13,0,0,0,269,24.4Zm-3.18,119.2h-.37c0-.19.19-.19.37-.19Zm.19-2.24.19-1.68h-.37c-.19.19-.19.75-.19,1.5Zm2.06-115.65.37-.19c-.19-.19-.37-.37-.56-.37s-.19,0-.19.19Zm1.87,77.53-.37.19-.19-.37c.19,0,.37,0,.37-.19Zm.37-80.9L275,24.4l3.18-.93V23.1Zm-.19,77.91V101h-.19v-.75Zm.56-5-.19-.19.19-.19c0,.19,0,.19.19.19Zm0,1.49v.93h-.19v-.93Zm.75-4.48-.19.37-.19-.37.19-.19Zm-.19-5.42.37.19c0-.37,0-.56-.19-.75Zm.56-4.48c-.56.56-.56,1.12.19,1.68Zm0,7.1v-.19c.19,0,.19,0,.19.19Zm.19-8.41h.37c.19-.93.19-1.49-.37-2.06Zm2.62-57.36h-.37l.37.93.37-.19Zm1.49,2.8v-.37H281c0,.19,0,.37.19.37Zm-.19-2.62v.37h1.12v-.37Zm2.24.75-.56.37v.19l.75-.19Zm2.43,1.31c-.93-.56-.75-.37-1.31.56Zm-.56-2.24h.19l-.19-.19Zm1.87,1.87h-.19l.19.75Zm1.31-5.23v-.37l-.19.19Zm4.48,4.86v-.56h-1.31a3,3,0,0,0-2.24.75Zm-1.49-3.92a8.44,8.44,0,0,1,2.43-.19c-.19-.93-.75-1.31-1.31-1.12Zm3.36-1.12c0,2.06.19,1.87-1.87,2.43l-1.12.56,1.12.19q.56.84,1.12,0l.19.19.37-.19v.19c.93-.19,1.49-1.87,2.06-2.43Zm-.56-1.87v-.19H294v.19Zm-.19,5h0Zm.37,2.06c.19-.19.37-.37.37-.56-.19,0-.37.19-.56.37Zm1.87-.93c.56.56.93.56,1.31,0Zm.19-1.31h.75v-.37h-.75Zm.75,5.6-.37.19h.37Zm.93-6.35c0,.75,0,1.31-.19,1.49a3.76,3.76,0,0,0,.75-1.49ZM300,24v-.19c-.19,0-.19,0-.19.19Zm7.85-.75a1,1,0,0,0-1.12-.75h-1.12c-1.31,0-1.49-.19-1.68-1.68a1.7,1.7,0,0,0-.56-.93L302.83,22v-.19c0,1.31-1.12.75-1.31.75l-.19,2.06c.93,0,1.31-.37,1.49-.93,1.12-.37,1.68-.56,1.87-.37s.56.19,1.12.19l2.24-.19a1.67,1.67,0,0,0,2.24-.19Zm-5.79-2.62c0-.19.19-.37.37-.56l-.56-.19c-.19,0-.19.19-.19.37Zm2.62-1.31h-.19l.19.19Zm3.92,5.23-.19.19h.19Zm6-.75a14.8,14.8,0,0,1-1.68-.75V21.6a.69.69,0,0,1-.56.19c-.19,0-1.12-.56-1.31.75l.56.19c0,.56-1.31.75-.56,1.68a1.7,1.7,0,0,1,1.31-.56c.19,0,.93.19,2.24.37Z" transform="translate(-8 -3.29)"/><path class="cls-1" d="M407.45,70.92l.56.56c-1.12,1.68-1.5,3.36-.93,4.67v.19h-.19a6.21,6.21,0,0,0-.56,3.36v.56c0,.19-.19,1.31-.56,3.18l-1.68,8.22L403,97.08c-.56,1.49-.93,3.36-1.5,5.42-.19.93-1.87,3.55-1.68,5.6-1.31.56-1.31,2.43-1.5,3.18a15.41,15.41,0,0,0-1.12,3.55l-.93,1.87c-1.49,1.68-2.43,4.86-3,5.79a12,12,0,0,1-4.48,4.67l-2.24,1.68c-.19-.19-.37-.19-.93-.19a9.24,9.24,0,0,0-2.43.56c-.93.19-1.49.37-1.68.37-.93,0-2.05-.56-3.74-1.49a9.82,9.82,0,0,0-2.05-1.31c0-.19-.37-.19-.37-.37-.56-1.49-3.18-3.74-3.74-5,0,0-.37-.75-.93-2.24-1.31-.19-1.49-2.62-2.05-3.36a5.17,5.17,0,0,1-.93-1.68,16.79,16.79,0,0,1-1.49-3.55c-.19-1.49-1.31-3.55-1.5-4.3a4.52,4.52,0,0,1-.75-2.43v-.37c0-.75-.75-1.68-.93-2.24l-1.68-6.35a13.86,13.86,0,0,1,.37-1.49c0-.93-.37-1.87-.37-3.18a4.64,4.64,0,0,0-1.49-3.74c0-.93,1.31-1.87-.37-2.43l-.19-.75c0-.19.19-.75.37-1.49.19-.19.19-.75.19-1.49a4.67,4.67,0,0,0-.75-2.62c.19,0,.37-.19.75-.56,0-.56-1.68-1.31-1.12-2.24h.37V73.73a4.67,4.67,0,0,0-.56-2.43c0-.19-1.12-1.31-.19-2.06.19-.19.19-.56-.19-.93-1.31-1.49-1.12-4.11-1.12-4.86,0-1.68-.37-3.36-.37-4.86a21.71,21.71,0,0,1-.19-4.3,11.84,11.84,0,0,0-3,4.86,53.91,53.91,0,0,1-3.18,6.54l-2.62,5.79-.75,1.12c-.56.56-.93.93-.75,1.12s0,.56-.19.75c-1.5,1.31-1.68,4.67-2.24,5.6l-2.43,5.6a.69.69,0,0,0-.19.56c0,2.43-1.87,5.79-2.43,7.29a40.68,40.68,0,0,1-1.87,3.92l-2.05,4.67a29.5,29.5,0,0,1-2.05,4.3L331,110l-.19.37c.56,2.8-2.06,5.6-3.18,7.66-1.49,3.55-3.55,6.17-4.48,7.85l-2.8,4.86-.93,1.87-1.12-.19a5.18,5.18,0,0,1-.93,1.68,3.28,3.28,0,0,1-2.8-1.12c-.75-.75-1.31-1.12-1.87-1.12h-.37a1.41,1.41,0,0,1-1.31-.93,11.06,11.06,0,0,0-2.06-3.55,4,4,0,0,1-1.31-3V124c0-.56-.93-1.87-.93-2.62l-.75-3.18c-.19-1.31-2.06-6.54-1.49-10.28v-.56c0-.56-.19-1.31-.37-2.62v-.93h.19l-.19-.37v-3a5.52,5.52,0,0,0,.37-1.87,5.45,5.45,0,0,0-.37-1.68V95.21a9.14,9.14,0,0,0,.56-4.11,43,43,0,0,1,.75-6.35l-.56-.75,1.31-2.06c.56-1.12.56-2.06,0-2.62l-.37-.93a36.19,36.19,0,0,1,.75-4.48l1.12-3a15.51,15.51,0,0,1-.37-2.43c0-.75,0-1.31.19-1.49a29.15,29.15,0,0,0,.93-4.11,12.56,12.56,0,0,0,.19-3.36c.93-.75.93-2.8,1.12-3.55a43.49,43.49,0,0,1,.93-5c0-.56.56-.56.56-1.12V47.2l.19-1.31c0-.56-.37-.75-1.31-.75l2.24-1.49-.93-1.49a4.25,4.25,0,0,0,1.12-2.24c.19-.75.37-1.12.37-.93,0-.56-.37-.93-.93-1.31a.69.69,0,0,1-.19-.56c0-.19.37-.93.19-1.49-.19-.75-.37-1.12-.37-1.31a24.7,24.7,0,0,1,.56-2.43,2.78,2.78,0,0,1,2.8-.93l3.74,3.18c.37.37.56.56.75.56H320c1.31,0,1.87,1.49,2.06,1.68a8.16,8.16,0,0,0,2.8,1.87c.93.56,2.24,2.06,3.18,2.8l.37,2.06a12.14,12.14,0,0,1,.19,3.55c-.56,1.68-1.87,5.23-1.68,7.47,0,.56-.56,1.12-.56,1.68,0,.75-1.49,2.43-1.49,3.36v.56a6.41,6.41,0,0,1-.75,3,35.53,35.53,0,0,0-1.68,6c-.19,1.49-1.68,5.42-1.49,7.85-.75.75-.37,2.8-.93,3.55-.19.75-.19,2.43-.37,3.36h-1.12v.37a3.55,3.55,0,0,1,.93,2.43,4.2,4.2,0,0,1-.19,1.87l-1.12,4.11V93a20.19,20.19,0,0,1,0,3.36,5,5,0,0,1-.75,3c-.56.75-.37,2.62-.37,3.92q1.12-.84,1.12-1.12a48.22,48.22,0,0,0,2.24-4.48l.56-.56c1.68-.19,1.87-.93,2.06-3a6,6,0,0,1,.37-1.12c.19-.75.75-3.55,2.8-4.48,0-.56,1.12-1.87,1.12-2.62a2.53,2.53,0,0,1,1.31-2.43l.19-3h.37c.75,0,1.31.37,1.87,1.31l1.68-.56a26.55,26.55,0,0,1-3.92,7.66V90c1.31.56,1.12-.75,1.12-.93,0-1.49.56-2.24,1.87-2.24.93-2.43,2.24-5,3.36-7.47L337,75.41l3-6.54,2.62-4.67a2.67,2.67,0,0,0,.75-1.87c.19-1.31,1.68-2.8,2.24-3.55l-.19-1.12,1.5-1.31.37-.19.37-.37-.19-.19c-.19,0-.37.19-.56.37v.37l-.75-.93a3.3,3.3,0,0,0,1.5-.93c1.31-1.31,1.68-1.49.93-2.8a.88.88,0,0,1,.19-1.12c.75-.56.75-2.06,1.31-2.8C351,46.45,352,42.9,352.71,42a5.06,5.06,0,0,0,0-1.68L346,53.18h-.37V50.56a7.11,7.11,0,0,0,2.06-3h-.37c-.75,0-1.49,1.87-2.8,1.31.19-1.31,1.31-3.18,1.5-4.11,0-.19.93-.56,1.68-1.12a2.87,2.87,0,0,1-.75-1.12c.75-.19.56-2.43,2.05-2.43v-.75a6.58,6.58,0,0,1,1.31-3.92l.93,1.49c1.31,0,.56-.93.56-1.12a1.8,1.8,0,0,1,1.68,1.49c-.75.75.56,1.31.56,1.49l1.31-.37c.19,0,.56.37,1.31,1.12,2.8,3.18,4.11,4.86,4.11,4.67a13.45,13.45,0,0,1,2.8,5,23.88,23.88,0,0,1,1.68,6l.75,7.1.56,3.92.56-2.06a3.26,3.26,0,0,1,.56,1.31l.93,6.54.75,2.8,1.31,5.23c-.19.19-.19.37-.19.75,0,.75.75,1.87.56,2.8v.56a17,17,0,0,1,.19,3.18v.37a3,3,0,0,0,.56,2.06c.75.75.56,2.43.56,2.62.19,1.68.56,3.18.75,4.11a11.08,11.08,0,0,1,.75,3.92l1.31,5.42a20.18,20.18,0,0,1,.93,3.55c0,.56.93,1.12,1.12,1.31l3.74-6.73c0-.19,0-.37.19-.37a8.35,8.35,0,0,0,1.68-5.23c.19.19.75.19.93.37l1.49-.93c-1.31-.19-1.87-.37-1.68-.37a7.77,7.77,0,0,1,2.05-4.86c0-.19.56-1.31.37-1.49v-.56c0-.56.56-1.12,1.49-1.31l-.75-.93c.19-.75,1.5-2.05,1.31-3l.93.37-.19-1.49h-.37L388,85.31c-.56-.37-.75-.75-.75-.93a2.82,2.82,0,0,1,.75-1.49c1.31-1.68,1.12-4.48,1.12-5.23l2.24-3.74a1.41,1.41,0,0,1-.75-1.31c0-.56.38-1.49.19-2.06v-.19a1.93,1.93,0,0,1,.75-1.49,8.14,8.14,0,0,0,1.31-3.18c.19,0-.19-.19-.93-.37a16.7,16.7,0,0,0,.37-2.06h1.12l-.75-2.06c1.31-.75,1.12-3.36,1.31-4.11.19-.19-.56-.56-.75-1.12l.75-.37c.19-1.68.56-4.11.75-7.1l-1.31-.56.75-1.12.19-1.12a7.93,7.93,0,0,0-.93.37l-.19-.37.19-5.6a6,6,0,0,1-.37-1.12l-.37-.37v-.75c0-2.06-1.5-3.74-1.68-4.48l-1.5-3a2.52,2.52,0,0,0-2.43-1.87l.19-1.68,2.43.56c.19.56,1.12,1.12,1.12,2.06.19,1.31,1.87,1.87,3.36,1.31l2.43,3.18h.19c.19,0,.19,0,.37-.19l3.74,3.74.56-.75a49.34,49.34,0,0,1,2.8,5.42c.56,1.31,2.06,4.67,1.87,7.47,0,.93.93,2.62,1.12,3.36-.19.19-.19.37-.19.93a5.57,5.57,0,0,0,.93,2.62l-.93.93c.56.75.75,1.31.56,1.87a38.88,38.88,0,0,0,0,4.67l-.19,3-.19.93.19,1.12a4.71,4.71,0,0,1-.75,1.68ZM310.86,42l.19-.19c.19,0,.19,0,.19.19Zm8.78,61.65v-.19h-.37l.19.19Zm9-14.95-.19-1.31-3,3.55.75.75-2.43,1.49v1.49c0,1.68-.56,2.8-1.68,3.18v.56c0,.93-.93,2.43-1.12,3-.37,1.12-.37,1.87.19,2.43.56-1.31.75-2.24,2.24-2.24l-.56-.93.93-.56c-.56-.19-.75-.37-.19-.93a1.41,1.41,0,0,1,.37.75c.93-.75-.19-.75-.37-.75,0-1.31,1.31-1.31,1.49-1.31,0-.19-.93-1.12,0-1.68l1.12.93c-.19-.19-.19-.75-.19-1.49a15.78,15.78,0,0,1,.93-3.36c0-.19,1.49-1.68.56-3Zm-1.31,5-.19.37.19.37c.19,0,.37-.19.56-.37Zm.56-.75.56-.56v-.75h-.37a6,6,0,0,0-.37,1.12ZM329,82.32l1.68,1.5.19-2.06Zm1.12-4.48a26.25,26.25,0,0,0,1.87-3l1.12-.37a12.33,12.33,0,0,1-.75,2.06,7.56,7.56,0,0,1-1.49,1.87Zm0,1.68.93-.93.37.56-.93.56Zm2.62.56h.19l.19.19-.19.19Zm.56-1.31c0-.56-.19-1.31,0-1.49.19-.56.93-.93,1.87-1.87a5.76,5.76,0,0,1-1.31,3.36Zm3.36-13.64-.19,2.24c-.19.75.19,1.12.93,1.31.56-.19.37-1.68,1.68-1.49a16,16,0,0,1-2.43,5.42l.19-3.36c-1.31.56-1.68,3.55-3.18,4.11A18.46,18.46,0,0,1,336.65,65.13ZM335.53,75v.19c-.19,0-.19,0-.19-.19Zm.75-1.68-.19.75-.37-.19.19-.93a.69.69,0,0,0,.56-.19Zm1.87-11.77v2.06l-.93,1.49a1.42,1.42,0,0,1-.37-.75A3.9,3.9,0,0,1,338.14,61.58Zm2.05-3.74.19,1.68a6.52,6.52,0,0,1-1.68,1.12,10.24,10.24,0,0,1,.93-3.18c.19-.56.93-.75,1.5-1.31.19-.56.37-2.8,1.87-4.11.19.75.37,1.12.37.93,0,.56-.56.93-.75,1.49l-.37.75c0,.19.37.56,1.31.93l.37-2.06,1.5-.19c-.75,1.68-1.87,6-3.92,8.22-.56.93-1.12,3.55-2.06,4.48-.19-.19-.19-.56-.19-1.12a5.14,5.14,0,0,1,1.87-3.74V59.9c1.12-.19,1.5-.75,1.31-2.06Zm3-6.91c0-.93.37-1.31,1.31-1.5a7.93,7.93,0,0,0-1.12,2.62C343.19,51.87,343.19,51.49,343.19,50.93Zm1.12,16.44c-.19,0-.37.19-.75.56.19,0,.37.37.56.37.19.19.56-.19.75-.19C344.68,67.56,344.49,67.37,344.31,67.37Zm3.36-1.31.19,1.87a3.47,3.47,0,0,0-1.31,2.24l-1.5-.37,1.12,2.06c.19-1.31.37-1.87.37-1.68a2.44,2.44,0,0,0,1.31-2.24,2.77,2.77,0,0,0,.75-2.43ZM347.86,47l.75-2.24c-.19.19-.75.19-1.68.19Zm2.24,16.81c-.93.56-1.31.93-1.49,1.49Zm.19-1.12,1.12-2.24L349.54,62Zm-.19-7.29.56-.93-.19-.19a1.46,1.46,0,0,0-.75.75Zm.56-14.76,1.49-2.24-.93-.56c-.56,1.68-.93,2.62-.93,2.62ZM351,55.79l.19.37.19-.19c0-.19,0-.37-.19-.37Zm.75-20.18h-.19v-.19Zm1.87,1.87c-.19,0-.19,0-.19-.19C353.46,37.48,353.46,37.48,353.65,37.48Zm4.11,27.84v1.12h.19V65.32Zm.37,9,.37-.19v.56Zm4.67-3.36.37-.19c0-.19,0-.19-.19-.19l-.19.19Zm2.24,23h-.19v.56l.37-.37Zm1.5-31c.19,0,.19.19.19.37h-.19c0-.19,0-.19-.19-.19Zm18.31,46.89.93-.56-.19-.37a.68.68,0,0,0-.56.19c-.19,0-.37.19-.37.56Zm1.87-3.55a5.44,5.44,0,0,0-.93-1.87,1.58,1.58,0,0,0-.37,1.12,2.58,2.58,0,0,0,.93,1.68Zm5.6-23.35c1.5-2.24,1.87-5.79,2.06-7.1l.37-3.18c-.19.19-1.12.75-1.12.93a4.18,4.18,0,0,0-.19,1.87,1.82,1.82,0,0,1-1.49,1.87c.19.19.19.56.19,1.12,0,.93-1.12,3.55-.93,4.48-.56.19-.75.37-.75.75,0,.56.56,1.12.37,1.68l-.93.56.56.19a30.34,30.34,0,0,1-.56,3.74l-2.24,8-1.31,5a5.32,5.32,0,0,0,1.87-3c.19-1.68,1.49-4.48,1.68-6.17a20.27,20.27,0,0,0,.93-3.55,3.94,3.94,0,0,1,.75-2.06,2.18,2.18,0,0,0,.75-2.62A5.76,5.76,0,0,1,392.32,82.88Zm-5,7.47h-.19l-.19.37c.19,0,.37,0,.37.19l.19-.37Zm.93,13.64v-.37c-.19,0-.37,0-.37.19s0,.19.19.19Zm1.31-2.24-.37.19.19.37.37-.19Zm-.19-13.27.19.19V88.3Zm.56-9,.56-.37-.19-.56c-.37.37-.56.56-.56.37Zm2.05,17.19.37-.37-.37-.37a.4.4,0,0,0-.37.37Zm.75-6.54c0,.19.19.75.37,1.68.19-.93,1.68-2.43,1.12-3.74A2.62,2.62,0,0,0,392.69,90.17ZM394,70.36c.56.19.93-.19,1.31-.75,1.31-3.18,1.87-8,2.43-10.09-.75-.75.19-1.68.37-1.87a3.9,3.9,0,0,1-1.12-.75l.56-.56a20.38,20.38,0,0,0,.56-4.48,1.93,1.93,0,0,0-.75-1.49.69.69,0,0,0-.56.19l-.19.75c-.19,2.43-.75,6.73-1.49,12.7l.19.75c0,.56.37,1.31.19,1.49l-1.31.93a1.71,1.71,0,0,1,.56.93C394.75,68.68,393.82,69.8,394,70.36ZM394.19,87c.56-.56.75-1.12.19-1.49C394.19,85.68,394.19,86.06,394.19,87Zm1.68-8.22a26.19,26.19,0,0,0-1.31,6.17l1.31-.75c.56-2.8.75-4.67.93-6C396.24,78.21,395.87,78.4,395.87,78.77ZM394.75,95.4c1.31-1.49,1.31-1.31,0-1.87Zm2.8-26-1.31,7.85,1.31.19v1.31l1.31-2.06-1.31.75a7.12,7.12,0,0,1,.19-2.43c.19-1.49.75-2.8.93-4.3l.56-6a6.08,6.08,0,0,0,.37-1.12c.56-.93.37-1.49-.56-2.06C398.49,63.82,398.11,66.44,397.55,69.43ZM397,41.78v-.56h-.37a.68.68,0,0,1,.19.56ZM396.62,44v1.49c0,.93.19,2.43.38,4.11.56-.19.75-.37.75-.56-.19-2.24-.37-3.74-.37-5Zm0,44.47.19.75.37-.19a.69.69,0,0,1-.19-.56ZM399,82.13l-.37-.75-.56.75a1.42,1.42,0,0,0,.75.37Zm-.37-8.22c-.19,0-.19,0-.19.19l.19.19c.19,0,.19,0,.19-.19Zm2.24-18.5c-.56-.56-1.12-.37-1.31-.56C399.61,55.79,400,56,400.92,55.42Zm.37,2.06-.93-.93c-.56.56-.56,1.12,0,1.87Z" transform="translate(-8 -3.29)"/><path class="cls-1" d="M478.82,75.59l-1.31,5.6A42.58,42.58,0,0,1,475.65,87a8.47,8.47,0,0,1-2.05,3.55c-.75.75,0,.93,0,1.49-.75.56-1.68,2.8-2.62,3.55l.19.56c0,.75-1.49,2.06-1.49,2.62-.19,1.49-.93,2.05-2.05,1.87,0,.93,0,1.49-.19,1.68h.19l-1.31.93c.19.19.19.37.19.75,0,.93-1.12,2.06-1.31,2.62l-2.43,3.55L459.21,115a12.77,12.77,0,0,1-3.92,3.55,29.46,29.46,0,0,0-2.43,2.43c-.19.19-.93,1.31-1.49,1.12H451c-.93,0-2.62.75-3.36.56v-.19h-.19l.19.19a5,5,0,0,1-3.36,2.05,18.42,18.42,0,0,1-4.48.56,16.47,16.47,0,0,1-3.18-.37c-.75-.19-1.5-.75-2.24-.93-.75,0-1.87-1.87-2.8-2.06-1.31-.19-2.8-2.05-3-2.24-.75-.75-1.31-2.06-2.05-2.8-1.68-1.31-3.74-5.23-4.67-6.17a1.58,1.58,0,0,1-.37-1.12l-.37-1.31c-1.68-2.43-2.62-5.23-3.74-8.78l-.56-1.87-.19-2.06v-.75a5.73,5.73,0,0,1-.75-3.18l.19-3q0-.56,1.12-1.68a6,6,0,0,1-1.12.37,39.67,39.67,0,0,1,.56-9.53l.75-2.24h.93c0-.56.19-1.49.37-3a3,3,0,0,0-1.31-.75c.19-.19.56-.93.75-.93A1.18,1.18,0,0,0,419,69.8c-.19,0-.37.19-.75.56,0-.19-.56-.75-.37-.93.19-.75.19-3.36,1.68-4.67-.19-.19-.19-.37-.19-.93,0-.19.19-.93.37-1.87.93-3.92,2.8-7.66,4.3-12.14L426.14,44c.93-1.49,1.49-2.8,2.05-3.74l1.5-1.68V38a2.88,2.88,0,0,1,1.87-3,5.41,5.41,0,0,1,2.62-3.74c1.5-3.55,5.42-5.79,6.73-7.1l1.12.56c-.19-.75-.37-1.12-.37-.93.19-.19.93-1.12,1.87-.37a3.8,3.8,0,0,1,4.67-1.87c1.68.75,3.92,2.06,6.91,3.74L457.53,27c1.31.93,3.55,1.49,4.48,2.05a13.41,13.41,0,0,1,5.23,3.74l.19.37c-.19,1.68,2.24,4.67,2.43,5.6,0,.56.56,1.68.37,2.62v1.12c0,1.12.37,1.68,1.31,1.87.56,0,1.12,1.87,1.87,2.05v.37c0,.75.93,1.31,1.5,1.87a17.81,17.81,0,0,1,3.55,9,40.2,40.2,0,0,1,.56,7.29c.19,2.24.37,3.92.37,5.23C479.38,70.36,479.2,72.23,478.82,75.59Zm-61.47,4.67L417,81h.19l.56-.56Zm-.19,2.05-.19.19h.19Zm.37-8.78c.75.93-.19,1.87-.19,2.06C416.61,74.85,417.36,74.1,417.54,73.54Zm.19,2.62c-.56,1.31-.19,1.49.75,1.49Zm-.19,3h.19V79c-.19,0-.19,0-.19-.19Zm1.68-11.58v1.31l.37-1.31Zm.19,4.67-.19.19h.56Zm0,30.27v-.37l-.19.19Zm3.92-2.62-.19.19h.19Zm.93-36.06c0,.19,0,.19-.19.19v.19l.19-.37q.84-.28,0-1.12Zm1.31-3.92v.19a3.51,3.51,0,0,0-.93,2.06c1.49-.75,1.49-.75.93-2.06Zm1.31-1.5-.75.19a.4.4,0,0,1,.37.37Zm0-.19a3.57,3.57,0,0,0,1.12-2.8A2.13,2.13,0,0,0,426.89,58.22Zm1.68-4.11-.37.19.37.37h.19Zm.37,57v.37c.19-.19.75-.19.93-.37Zm17-6.35,5.42-8a24.34,24.34,0,0,0,2.62-4.3,29.47,29.47,0,0,1,2.62-4.3c.56-.56,1.68-3,3.55-6.91h0c.56-1.49,1.31-5.6,3-7.29l.37-2.24c.19-1.68.75-3.18.93-4.86V65.51a9.34,9.34,0,0,0-.37-2.24c-.19-.19-.19-.37-.19-.93,0-.75.56-1.31,1.49-1.68l-1.49-.56a2.88,2.88,0,0,0,.37-3.36,3,3,0,0,1-.37-2.06v-.56c0-1.31-.56-3.55-.37-4.86-1.68-4.11-3.55-6.91-5.79-8.59-.19-.19-1.12-1.49-1.87-1.68h-.19a9.1,9.1,0,0,0-2.06.75c-.19,0-1.31-.19-1.5.75-1.31.56-3.18,2.62-4.11,3.18-.19,0-.56.75-.75.93l-1.49,1.68-1.87,2.06c-.56,1.31-3,4.48-3.18,6.54-2.05,2.43-3.36,7.29-4.11,9.34a3.91,3.91,0,0,0-.56,2.24c-.19,0-.19,0-.19-.19v.19H436c-.56.93-1.68,2.8-1.68,3.74v.37c0,.93-.93,3-.37,3.92l-.75.37c.19.19.56,1.12.37,1.31a50.39,50.39,0,0,0-1.49,6.17A65.34,65.34,0,0,0,431,88.86a14.27,14.27,0,0,1-.93,3.92c-.19,0-.19.19-.19.37-.19,0,.19.19.93.37-.19.56-.56.75-.56,1.49l.19,1.49-.56,1.68a21.65,21.65,0,0,1,.75,3.36c0,.93.37,1.68.37,2.43a9.24,9.24,0,0,1,.56,2.43c.19,1.31,1.31,2.8,1.5,3.74.37,1.68,1.31,2.05,2.8,1.49l2.06-1.31a7.1,7.1,0,0,0,4.11-3.92l.93.19c1.12,0,1.87-.75,2.06-2.06l.93-1.87c0-.19.19-.19.37-.19ZM430.25,43.83l.93-.56L431,42.9l-.93.56Zm14.95,63.9-1.12-.19c-.56,0-.93.37-1.31,1.31Zm4.48-1.5c-.19,0,0,1.68-.93,1.87l-.56-.56-1.12,2.8c.19.19.37.37.56.37.93-1.31,2.8-3,3.55-4.3,0-.19.93-1.31,0-1.87C450.61,104.74,450.43,106,449.68,106.23Zm-1.68-6v.56h-.37a.69.69,0,0,0,.19-.56Zm1.12,4.67c.75-.93,3-3,3.18-5C451,101.19,449.31,103.62,449.12,104.93Zm5.42-2.62h-.37c-1.31,0-1.87.75-1.87,2.43Zm-1.87-9.15h-.19l.19-.19Zm0,6.17L454,97.83l1.12-1.31A5.33,5.33,0,0,0,456.78,93,27.24,27.24,0,0,0,452.67,99.32Zm.56-7.29.19-.37Zm.93-1.68.37-.75.37.19c-.19.19-.37.37-.37.56Zm2.06,12c-.19,0-.19,0-.19-.19-.19.19-.19.37-.19.75Zm4.3-13.83.19.75.37-.75h-.37v-.75l.75.37L462.57,87c.56-.93.75-2.06,1.31-2.8a2.28,2.28,0,0,0,.75-1.68,3,3,0,0,0-.56-1.68l-2.24,3.36c-.56-.56-.75-.37-.75.37l.93-.37a3.44,3.44,0,0,1-1.49,2.62V85.5l-2.24,3.18c-.19.19.19,1.12.19,1.68a2.76,2.76,0,0,0-1.68,2.43,1,1,0,0,0,1.31-.56l.75-1.49.19-.19-.19-.19,1.31-.93c.19.19.19.37.19.75l.19-.75h-.37v-.93Zm-3.18,11.58-.19-.19-.37.75.19.19Zm.93-1.31-.37.19.19.19Zm.56-8.41v.37l-.37-.56h.37Zm-.19,12.14c1.12-.19,1.68-1.12,1.87-2.62Zm.56-21.11H459l.19-.37Zm.19-.56h-.19l.19-.19ZM460,91.66l-.37.37.19.19Zm-.19,4.48v0Zm.93-9.34-.19.93h-.37Zm-.56,4.67.37-.37h-.19Zm1.12,7.85h-.19c0,.19,0,.19.19.19Zm1.87-3.92L462,96.71l1.12.37V95.4A4.87,4.87,0,0,0,464.81,92,4.87,4.87,0,0,0,463.13,95.4Zm-.75-13.26h0Zm0-.19q1.12-.28.56-1.68Zm.56-12.14v-.19l.19.19c0,.19,0,.19-.19.19Zm0,21.11h.19l.19-.19c0-.19-.19-.19-.37-.19Zm1.87-17.19.93.56c-1.31.75-1.87,1.49-1.87,2.43a5.66,5.66,0,0,0,.56,2.06c.19.19,0,.37-.37.75-.19-.19-.37-.19-.75-.19v.19h.75l.37.75c2.06-2.43,3-5.6,2.8-9.9A6.05,6.05,0,0,1,464.81,73.73ZM463.69,67h-.19l.19-.19Zm0-2.43a1.7,1.7,0,0,1,0,2.24Zm.19,23.54h.37l-.19-.19Zm1.31-25L465,62.7l-.37.19c0,.19,0,.37.19.37ZM465,76h.37v1.31a.69.69,0,0,0-.56-.19Zm.37,5.79h-.19l.19.19h.19Zm.75,8.78c0-.19-.19-.19-.37-.19v.37c.19,0,.19,0,.19.19Zm.56-20.92-.19-.75h-.19v.75Zm0,18.12c-.19.75-.37,1.12-.37,1.31h.37V87.74a3.76,3.76,0,0,0,1.68-2.06C466.68,86.24,466.68,87.18,466.68,87.74Zm0-5.79.19.19.56-1.49a.69.69,0,0,1-.56-.19Zm.93-26.72L468,55l-.56-2.24h-.37Zm-.19,3.36V58l-.19.37Zm.93,2.24c-1.5,0-.56,1.49-.56,1.68ZM468,65.69h-.37v.19l.19.19Zm-.37,36.81v0Zm.37-46c0,.56,0,.75.19.93h.19c0-.56,0-.75-.19-.93Zm.93,26.9-.37.19h.56Zm.19-7.85-.19.19h.19Zm.37-1.49a2.16,2.16,0,0,0,1.12-2.43C469.11,72.42,469.3,72.42,469.48,74.1Zm.75-16.44h.19c-.19,0-.19,0-.19-.19Zm.37,11a13.33,13.33,0,0,0,.93-3.74,13.9,13.9,0,0,0-.93-4.11Zm.19,7.1c-.19,0-.19,0-.19.19a.4.4,0,0,1,.37.37l.19-.19Zm.37-6c-.19,0-.19,0-.19.19l.56.56c.19,0,.19,0,.19-.19ZM474.34,87v.19c.19,0,.19,0,.19-.19Z" transform="translate(-8 -3.29)"/><path class="cls-1" d="M557.29,108.1l1.68,1.68-1.12.19,1.31.75-.93.56-.37.93h-1.5v.37l1.68.56v.37l-1.87.56a7.33,7.33,0,0,1-1.68.75c-.56,0-1.12.19-2.43.37l2.06.56c-.56.19-1.12.93-1.31.93l-7.29-.19a8.39,8.39,0,0,0-3.18.75,4.59,4.59,0,0,1-3.74.56,8.72,8.72,0,0,0-3-.19l-.56.19a4.87,4.87,0,0,1-2.43-1.31c-.93.93-1.49,1.12-2.05.93a51.23,51.23,0,0,0-5.42,0l.19-1.31-.37-.19c-.19.75-.37,1.12-.37,1.31-3,.19-3.92.37-4.11-.37a7.15,7.15,0,0,1-3.55.93l-3.55-.19a12.18,12.18,0,0,1-3.18-.56l-2.24-.75c0-.19-.19,0-.56.37-.93-.19-3.36-1.5-5-.93a4.45,4.45,0,0,1-1.68-.56c-.75-.19-1.12-.37-1.31-.37a4.83,4.83,0,0,1-4.48-2.62c-.56,3.18-.93,4.86-.93,5.42l-.37,4.11-.93,1.87c0,.19.19.56.37,1.31a4,4,0,0,1-1.12.75l-.56,4.86c.56,0,.93.37,1.49.56l-.37.37c-.56,0-1.12,0-1.31.19-.56,2.8-.75,4.86-.93,6.17-.19.37,0,.93.19,1.87.56.56,0,.93,0,1.12-.37.93-.19,1.31.56,1.5.19,0,.37.37.56,1.12a3.37,3.37,0,0,0-1.87.19,3,3,0,0,1,.56,1.49c0,.93-.93,2.43-1.12,3.18a12.1,12.1,0,0,0,1.87.37l-.37.56h-2.43l-1.68,2.43q-1.4-.28-1.12-1.12h-1.68c-.19,0-.37-.19-.37-.56v-.56c0-.37-.37-.56-.93-.56-.19,0-.56-1.31-1.5-1.12-.19-.56-1.12-1.68-1.31-2.43s-1.12-2.62-.56-3.92c.19-.19-.37-.75-.37-.93l-.56,1.12c-1.31-.93-.75-2.8-.75-3a3.14,3.14,0,0,0-.37-2.05c-.56-.56-.19-.93.93-1.31l.37-3.55c.37-3,.75-5.23.93-6.73.75-4.67,1.5-8.59,2.24-11.58a2.36,2.36,0,0,1,.75-1.31,1.58,1.58,0,0,1-.37-1.12l1.87-8.41.93-4.86v-.37a2.48,2.48,0,0,0-.56-1.87,4.45,4.45,0,0,1-.75-2.24,3.23,3.23,0,0,1,1.12-2.24,7.71,7.71,0,0,0,2.8-5.23,8.74,8.74,0,0,0,.56-3.18v-.37c1.5-1.49,1.5-4.48,1.68-5.79a18.42,18.42,0,0,0,.93-5.79c0-.93,1.12-3,.93-4.3v-.37c0-.93.75-2.8.75-3.55v-.56c0-.93,1.31-3.74.75-5.23,1.31-.56.75-2.8.93-3.36.56-.75.56-2.62.56-3.36l.37-3.74a14.68,14.68,0,0,1,.56-2.43c.75-2.43.37-6.54.37-8.59l-.93.56c-.56.56-.93,1.87-1.68,2.43a14.42,14.42,0,0,0-3.92,5.6c-.19,0-.37.19-.56.37-.19-.19-.37-.19-.75-.19-.56,0-1.12.37-1.68,1.31a3.26,3.26,0,0,1-3.55,1.68l-.75.37-1.12-1.31A3.34,3.34,0,0,1,479,44,10,10,0,0,0,476.77,42a2,2,0,0,1-1.12-2.24.35.35,0,0,0,0-.56c-.93-.93-.75-3.18-.93-3.74a3.44,3.44,0,0,1-.19-2.43l4.3-4.86h.37c.37-.37.56-.56.56-.37.75-1.68,3.36-3.36,4.3-4.3l.56.19c.19-.56.56-1.68,1.12-1.87.56-.75,1.5-.93,2.06-1.68.75-.56,2.24-.75,2.8-1.68a5.73,5.73,0,0,1,2.62-1.87l.75.56c.56-1.49.93-1.87,2.43-1.68a6.37,6.37,0,0,0,1.87-1.49q.28-.84.56,0c1.31-.56,3.74-1.31,5-2.06a11.24,11.24,0,0,1,4.67-1.12,11.84,11.84,0,0,0,3.92-.75,2.35,2.35,0,0,1,1.31.75,4.5,4.5,0,0,1,3.36-1.31c1.68.19,3.92,0,5.6.19a6.54,6.54,0,0,1,2.24.56,12.5,12.5,0,0,1,3.18.19,1.61,1.61,0,0,1,1.12.56l.19-.19c.56,0,1.49-.19,3-.37v.19a3.75,3.75,0,0,1-1.49.75c.19.19.37.37.56.37l1.31.56v-.19a1.25,1.25,0,0,0,1.87,0l-.19.19,2.8,1.87c.19.19.37.37.56.37.19-.19.56-.19,1.12-.19,1.31,0,2.43,1.68,3,1.87a39.58,39.58,0,0,0,5.42,4.48l3.18,2.24c2.05,1.49,3.36,3.18,3.55,5a23.22,23.22,0,0,0,1.12,3.74l.93.19L555.05,33l.75,1.87-.75.37.37,1.31-.56,2.62a32.26,32.26,0,0,0-1.49,3.92c-.19.19-1.12,1.49-.19,2.24l.19-.19-.19.37-2.05,2.24-1.49,1.87-.75,1.49h-.19v.19c0-.19,0-.19.19-.19s1.49-.93,1.68.56c-.56.19-3.55,1.31-4.3,3.74l.56.19,1.49-1.68c.19,0,.19,0,.19.19,0,.56,0,1.12-.19,1.31a2.25,2.25,0,0,0-.93.93c-.93.56-1.31.37-1.5-.56l-1.12.56A13.64,13.64,0,0,1,541,63.64V64c-1.5.56-2.06,1.31-1.68,2.62,0,.19-.19.37-.56.75,0-.37,0-.56-.19-.75-.75.75-2.8,2.24-3.55,3.92l-1.5,1.12.75.75a7.37,7.37,0,0,0-2.62.93l.19,1.12-1.12-.19v.19c0,1.31-2.06,1.68-2.24,2.24a8,8,0,0,1-2.62,2.43l-.75.37c-.75,1.31-3.18,2.8-3.74,3.74-.93,1.49-3.55,2.43-4.48,3.18-.19.19-1.12,0-1.68,0,0,.56,0,.75-.19.93a14,14,0,0,1-3.55,3.36,13.2,13.2,0,0,0-3.74,3c-.19.19-1.68,1.68-3.18,1.68-.19,0-.19.19-.19.56v.19l-.19-.19c-1.49,1.87-2.24,2.8-2.05,2.62l-2.62,1.31.75.75c1.31.19,3.92.93,5.42.75a6.71,6.71,0,0,1,2.06.75,7.83,7.83,0,0,0-.93.37l-2.06-.56c.75,1.49,1.87.56,2.06.56l.75.37c.56,0,.93-.93,1.49-1.12v.19c0,.93,1.5,1.12,2.06,1.31l.75-.93h6.17l.56,1.49c.19-.19.75-1.12,1.31-1.31l1.87-.19a3.61,3.61,0,0,1,1.87.56v.37l.19-.37a13.13,13.13,0,0,1,4.67,1.12c-.37.37-.56.56-.75.56V106l3,.19-.56-1.12a11.64,11.64,0,0,1,3,.19c.75-.93-.56-1.12-.75-1.12a12.37,12.37,0,0,1,3.36-.56c1.5.19,4.86.75,6.54.75a32.89,32.89,0,0,0,3.55.37,9.37,9.37,0,0,0,2.24-.37,1.71,1.71,0,0,1,.93.56l2.43-.19c.93.19,2.24,0,3.18.19a10,10,0,0,1,3.36.93,5.7,5.7,0,0,1,1.31,1.49ZM477.7,142.85h.56v.56c-.19,0-.19,0-.19.19Zm6-21.67-.19.75c0,.19.19.37.37.56,0,.19.19-.19.37-.93Zm.37,16.07-.19-.75a.68.68,0,0,0-.19.56Zm.75-20.55a7.36,7.36,0,0,0,.93-2.62C484.43,114.64,484.24,115,484.8,116.7Zm.19-3.55h.19V113Zm2.43,15.69H487l-.56-.37v.19a.69.69,0,0,0,.56.19L485.36,132l.93.93-.37,1.49c1.31-.56,1.49-1.68,1.49-5.6.56-.75.56-1.31,0-1.87Zm-.56,11.4c-.19-1.31-.37-2.24-.37-2.8a5.45,5.45,0,0,0-1.12,1.87C485.36,139.49,485.92,139.86,486.86,140.24Zm-.19-33.82-1.12-.56.37,1.87a3,3,0,0,1,.75-1.31c0,.56,0,1.12.19,1.31.75-.56.93-.93.56-1.5Zm-.37,5.6h.19v-.75h-.19Zm.37-3.36h.19v-.19h-.19ZM488,126.41l.37-2.05a1.64,1.64,0,0,0-1.12,1.31Zm.19-9.53-.19.19v.37l.19-.19Zm.56,6.73v-2.43l-.37-.19a5.82,5.82,0,0,0-.19,2.05l.56.56c0,.19,0,.19.19.19C488.73,123.8,488.73,123.8,488.73,123.61ZM490.22,110c0,1.68-.19,4.86-1.87,6.17l1.31,1.87c.93-4.67,1.49-6.91,1.49-7.1.19-.19,0-.37-.37-.93Zm-1.12,40.54h-.37c-.19-.19-.37-.37-.37-.56s.19-.19.37-.19Zm.19-30.83c-.19-.19-.19-.37-.19-.75h-.37c.19.19.19.37.19.93Zm1.68,18.5v-1.5h.19c.19.19.19.75.19,1.5ZM493,124.92l.37.19Zm2.05-8.78v.37l-.19-.37Zm1.31-31.95h-.19l.19.75.19-.19Zm4.48,3.55h.19v-.19l-.19.19a1.22,1.22,0,0,0-.37,1.49ZM504,85.87l-.19-.56a2.63,2.63,0,0,0-2.43,1.87Zm-1.87-2.8-.37,1.31c.19-.19,1.31-.56.37-1.31,0-.19.75-.93-.56-1.12ZM502,81c.19.19.19.19.19,0l.19-.19-.19-.19Zm6-5.42a1.93,1.93,0,0,0-2.24.37,7.2,7.2,0,0,1-2.8,2.62c-.93,0-.93.37-.37,1.31C503.86,79,505.54,77.28,508,75.59Zm-5.23.19c1.49,0,2.8-2.06,3.55-2.24L505.73,72a4.75,4.75,0,0,0,1.31.37,1.93,1.93,0,0,0,1.49-.75l7.29-6,6.73-5.79a6.72,6.72,0,0,0,2.24-3.36l.75.93L527.59,55a5.94,5.94,0,0,1,2.06-2.24,5.84,5.84,0,0,0,2.24-2.62c.19-.75.93-1.31,1.49-2.24l1.5-1.5a.68.68,0,0,1-.19-.56c0-.19,1.12-.56.93-1.12,0-.56.93-1.68,1.12-1.87l.75.75c.19-.56-.19-.75-.75-.75,0-.37,0-.56.19-.75l2.24-3.36a9.33,9.33,0,0,1,2.05-3.18,13,13,0,0,0,2.06-6.91c-2.24-2.24-6.91-3.18-7.66-3.36a62.45,62.45,0,0,0-8.41-1.49,14.32,14.32,0,0,0-3.36-.19c-1.31,0-3.18.19-5.42.37-.75,0-5.42.19-8.22,2.24a1.43,1.43,0,0,0,.37.93,8.48,8.48,0,0,1,.75,3.36c0,.93,0,1.49-.19,1.68s0,.56.19,1.49a36.29,36.29,0,0,0-.93,4.11l1.31.37-1.12.56c.19.19,1.12.75.19,1.49-.56-.75-1.12-.37-1.12.37l.19,1.12c0,.19-.37,1.68-.93,4.11l.19.19L510,45l.37.37a5.8,5.8,0,0,1-.93,2.06A10.58,10.58,0,0,0,508,54.67l-1.68,1.49a3,3,0,0,1,1.31.75,30.54,30.54,0,0,1-1.31,2.8l1.5-.75a4.11,4.11,0,0,1-.56,1.49c-1.31.19-1.12,1.68-1.12,1.87-1.31.19-.37,1.68-.93,1.87a4.16,4.16,0,0,0,1.68.19,7.59,7.59,0,0,1-1.87,1.5c.19.56,1.49,1.12.56,1.87l-.93-.37a7.55,7.55,0,0,1,0,2.06,2.71,2.71,0,0,0,.19,2.06,6.06,6.06,0,0,0,.37,1.12c0,.37-.37.75-.93,1.12-.56.19-1.12,1.49-1.68,2.06Zm.37,6.54.19.19v-.19Zm1.12-10.09L504,72l-.75.19v.37l.93-.19Zm.37,9V81l-.19.19Zm1.87-1.68c-.56-.19-1.12-.56-1.87.75Zm-.37-17.19h.37l-.19.75h-.19Zm.19,8.78.37.19c-.37,0-.56,0-.56-.19Zm1.31-5c0,.56-.37.56-.93.37C507.41,66.25,507.78,66.07,507.6,66.07Zm-.19,16.07c-.19.19-.37.19-.75.19l.19.37.56-.56.75.56v-.19c.56-.37.37-.75-.19-1.12Zm-.19-18.31.93.19c-.37.37-.56.56-.75.56,0,.19-.19.19-.56-.19C507.22,64,507.41,63.82,507.22,63.82Zm0,15.69c.93-.56,1.31-1.12,1.31-1.68Zm1.49-10.65.37.37-.75.93L508,70Zm-.19,6V75c0-.19,0-.19.19-.19Zm.93-20.36-.19.75h-.37a1.41,1.41,0,0,1,.37-.75Zm1.31,19.06c-1.31-.56-1.12-.56-1.68.75l1.5,1.31L513,73.17c-.19-.19-.37-1.49-1.31-1.68-.93.56,0,1.12,0,1.68C511.52,73.17,511,73.73,510.77,73.54Zm-.75-5-.19-.37h.37Zm0,.37h-.19v-.19Zm.19,8v-.19c-.19,0-.19,0-.19.19.19,0,.19,0,.19.19Zm.56,25.41h-.56c-.19-.19-.19-.19,0-.19l.19-.19Zm0-60.72c-.56-.75-.56-1.12,0-1.31Zm-.37,1.68V42.9l.37.19Zm1.31,35.87c-1.31-.56-1.31.75-1.31.93Zm2.06-14.39a4,4,0,0,1,1.31-.75c0,1.31-.56,2.06-1.49,2.24a5.7,5.7,0,0,0-1.31,1.49,1.16,1.16,0,0,1-.93-1.49A3.18,3.18,0,0,0,513.76,64.76ZM513,77.65c-.19.19-.37.37-.37.56.19,0,.37-.19.56-.37Zm3.92-9.15-.56-.19c-.37,0-.75.19-1.31.75L513,70.36a1.18,1.18,0,0,0,.75,1.5,7.85,7.85,0,0,1,.37.93l1.68-1.68c.19-.19.19-.56.19-1.49Zm-3,3.18c0,.19,0,.19-.19.19Zm1.5,4.11h-1.31c.19,1.49,1.12.56,1.31.56Zm-.56,27.28q.84.84,1.12,0Zm1.87-38.67L515.07,64a2.24,2.24,0,0,1,2.8-.93Zm-.19,5.79.75.37c.37,0,.75-.37,1.12-1.31ZM524,63.26a9.1,9.1,0,0,1-2.06-.75c-.75,1.68-2.43,3.36-4.11,3.55l-.37,2.06c1.12,0,1.87-.37,2.05-.93l1.12-1.49H522c.19-.19.19-.56.19-1.31Zm-4.48,41.48a6,6,0,0,0-1.12.37l-.93-.19v.56a5.8,5.8,0,0,1,2.05-.19Zm.19-43.16a3.93,3.93,0,0,1-1.12.75c-.56-.37-.75-.75-.19-1.31S519.55,61,519.74,61.58Zm0,9.53-.37.56-.19.75a1.18,1.18,0,0,0,1.49-.75ZM521,69.8h-.19L521,70Zm2.8,35.68c-1.31-.93-1.12-.93-2.43-.19Zm-2.05,11.58.19-.37h.19v-.19c0,.19,0,.19-.19.19,0,.19,0,.19-.19.19Zm1.68-48-1.31.56.19.37,1.31-.56Zm1.31-1.87.37.19a7.85,7.85,0,0,0,.37-.93Zm.19,37.18v.19h.75v-.19ZM526.65,62l-.19-.37-.56.75Zm.93,42.78c-.75-.56-.93,0-1.49.93ZM528.33,11c.37.56.75.56.93,0Zm1.49,40.54-.37.37.19-.56.93-1.12a.4.4,0,0,1,.37.37Zm0,52.5v.19c0-.19,0-.19-.19-.19Zm1.31-47.64-.19.19.37.75c0-.19,0-.19.19-.19Zm1.31,47.83c0,.19,0,.19-.19.19ZM533,12.07c.56-.56.93-.56,1.31,0Zm.19,35.87h.19l-.19.19Zm.37,58.29h.75c-.19-.19-.37-.19-.75-.19Zm1.68-35.31c-.19,0-.19-.19-.19-.37Zm.56,35.31h0Zm0,1.12h-.19v.19Zm1.5-.75,1.5-.19H536Zm.37-62.77h0Zm.56,24.1v-.37h.37Zm2.43,38.86V106a1.41,1.41,0,0,0-.75.37l.75.37c.56.93.75,1.12,1.68.37C541,106.79,540.48,106.61,540.66,106.79Zm.56-41.66-.37.19-.37-.19.37-.19Zm.93-1.68c0,.93.19,1.12-1.12.56ZM544,107.73v.19h.75v-.19Zm.37-47.64c-.37-.37-.19-.75.38-1.12A6,6,0,0,0,544.4,60.09Zm0,57.54v-.19l.19-.19.19.19Zm1.12-57.54c-.56.56-.75.56-.93,0Zm0,43.9-.19.19-.19-.37c.19,0,.19,0,.19.19Zm.75,3.74a.69.69,0,0,0-.56.19v.19a.69.69,0,0,1,.56-.19Zm.19,10.28a1.2,1.2,0,0,1,1.68.19Zm1.5-10.09-.19.19.37.75.19-.19A1.42,1.42,0,0,0,548,107.92Zm.93-51.56-.56-.93,1.12-.37c-.19.19-.19.75-.19,1.31Zm-.19,50.82h.75c0-.19-.19-.37-.56-.56Zm4.11-76.6c.56-.75.75-1.12.56-1.31a4.39,4.39,0,0,0-.75-2.24l-3.55-3.74c-.19,0-.19,0-.19.19C549.45,24.78,550.75,27,552.81,30.57Zm-2.05,77.91-1.31-.37v.56c.56,0,.93,0,1.12.19Zm-.37-.93v-.37a.69.69,0,0,0-.56.19A.68.68,0,0,1,550.38,107.54Zm3.92.19.56.75.37-.19-.75-.75a4.47,4.47,0,0,0-1.68-.56,1.93,1.93,0,0,0-1.5.75Zm2.62.56h-.37l-.19.19c0,.19.19.19.38.19Z" transform="translate(-8 -3.29)"/><path class="cls-1" d="M656.31,17.68l-.56,6.73-.56,3.92-.56,3.74-.56,6.17a21.65,21.65,0,0,1-.56,5.79c-.93,3-1.68,7.66-2.24,9.9a30.34,30.34,0,0,0-.56,3.74l-.56,2.43a19.79,19.79,0,0,0-.75,5.42c-.19.75-.93,2.62-.75,3.55-.75.19,0,1.31-.56,1.49h.19v1.68a5.92,5.92,0,0,1-.56,3.18L647,77.09c-.19,1.31-.37,1.87-.37,2.06l.19,2.24c-.56.56-.56,1.12-.37,2.06s.37,1.49.37,1.68-.19.93-.37,1.87v1.68a8.23,8.23,0,0,1-.37,1.87,6.67,6.67,0,0,0-.37,3.18l.19,1.68c0,.19-.19.93-.37,2.24a22.59,22.59,0,0,0-.19,3.36,15.35,15.35,0,0,0-.19,3.55l.19,8.22-.19,2.43c.19,0-.37.19-1.31.37a1.7,1.7,0,0,1,1.49,1.87l-1.12-.37-.19,1.5c0,1.49.37,2.43,1.31,3a3,3,0,0,0-.56,1.68,7.85,7.85,0,0,0,.56,2.62,53.36,53.36,0,0,0,1.12,5.42c0,.37,0,.56.19.75a5,5,0,0,1,1.31,2.62l.93,3.18-.93-.56-.56,1.87-2.43-.19c0-.19,0-.19-.19-.19a3.3,3.3,0,0,1-1.49.93c-.19.19-.56.19-1.12.19a2.4,2.4,0,0,1-1.87-.75c-2.8-2.24-4.3-6.73-5-8-1.31-1.68-1.87-4.86-2.06-5.61-.75-3.55-1.87-6.35-2.24-8.59L629.78,110c-.19-1.68-.37-3.18-.37-4.11a5.42,5.42,0,0,1,.56-2.06,3.68,3.68,0,0,1-.37-1.31,5.19,5.19,0,0,1,0-2.43l.19-1.31c0-.19-.19-.75-.37-1.68l-.19-1.49.19-1.49a11.72,11.72,0,0,0,.37-3V89.42l.56-7.29a32.06,32.06,0,0,1,.75-4.3l.56-.19-.56-2.8c.19,0,.19,0,.19-.19l.56.56H632a45.34,45.34,0,0,1,.93-6.54c.56-2.8.93-7.29,1.12-9.34a2.12,2.12,0,0,1,.56-1.49,1.54,1.54,0,0,0,0-1.31c0-.56.56-2.24-.37-3.18-.19,0-.19-.56,0-.56.56-.19.19-1.68.93-2.24l-.56-1.31c1.68-1.31,1.12-3.55,1.12-4.11s-.56-.56-.56-1.12c0-.19.75-1.49.19-2.43l.19-.37c.93-1.31,1.12-1.31.56-3,0-.56,0-.93.19-1.12a1.48,1.48,0,0,0,.37-1.68h-.19c1.31-1.31.56-4.3.75-5.23l-.56.75V26.27l-1.12,1.12-.75.93a36.66,36.66,0,0,1-2.8,6.35,29.53,29.53,0,0,1-1.87,4.48L627,46.64l-1.87,4.86-.37,2.06c-.75,2.24-2.24,6.73-2.8,9.15-.56,2.06-1.68,5.23-1.87,7.47a1.71,1.71,0,0,1-.56.93,3.35,3.35,0,0,0-.75,2.43c0,.56,0,.75-.19.93l-.75,2.62-2.43,7.85v1.49c0,2.06-.37,3.36-1.12,4.11-.19.19-.19.56-.19,1.12a3.53,3.53,0,0,1-1.31,2.62c-.19,0-.19,0-.19.19v.75c-.37,2.05-1.68,2.8-3.74,2.24a4.19,4.19,0,0,0-1.87-.19l-.19,1.31-.37.19a11.68,11.68,0,0,0-2.62,0l-2.24.56-.19,1.31-1.87.56A11.81,11.81,0,0,1,596,97.08a9.65,9.65,0,0,0-1.68-3.18l-2.43-5.23c-1.31-3-2.06-5.23-2.62-6.91a38.75,38.75,0,0,1-1.31-5.42,9.79,9.79,0,0,0-1.12-3,14.83,14.83,0,0,1-.56-2.8c-.19-.93-.37-1.68-.37-1.87l-.56-2.62L584.38,64a4.28,4.28,0,0,0,.19-2.8c-.56-1.31-.56-3.92-1.49-5.42a.88.88,0,0,0,.19-1.12,3.6,3.6,0,0,0-.56-1.87c0-.19-.19-.19-.75-.19v.75a4.67,4.67,0,0,1-.75,2.62,2.29,2.29,0,0,0-.56,1.68,16.51,16.51,0,0,1-.56,2.62c-.56,1.49-.93,5-1.49,6.54-1.31,3.92-1.87,10.46-2.05,12a77,77,0,0,0-.75,9.53,44,44,0,0,0-.19,5l.19.75a23.29,23.29,0,0,1-.75,3l-.19,2.62.19,2.8v4.86l-.19,2.62a5.46,5.46,0,0,0,.37,1.68c.19.19.19.56.19,1.12a4.18,4.18,0,0,0-.19,1.87,4.69,4.69,0,0,1-.19,1.87c-.19.19-.19.75-.19,1.68l.19,3.55a14.36,14.36,0,0,0,.19,3.36l-.19.56,1.12,6.17a9.59,9.59,0,0,0,.93,2.24,4.09,4.09,0,0,1-1.5,2.62c-1.31.93-1.87,2.06-1.5,3.36,0,.19-.19.56-.37,1.31-1.68,1.5-3.36,2.24-4.67,2.05-.19-.19-.56-.19-1.5-.19l-.75.19c-.93,0-2.05-.93-2.62-1.12-2.43-1.68-4.11-2.43-4.86-3a5.88,5.88,0,0,1-4.11-4.67c-.19-.19-.19-.75-.19-1.68,0-.56.19-1.5.37-2.8a11.15,11.15,0,0,0,.37-4.11v-6l.37-8.22v-.37l-.19-2.62c-.19-2.43.56-6.54.56-8.22,0-3.55,0-6,.19-7.66.19-3,.56-5,.75-6.35.19-2.43.56-4.48.75-5.79l.75-6.17a76.76,76.76,0,0,0,1.31-8.78L562,59.53c0-.75,1.31-3,1.12-4.3,0-.19.19-.37.56-.75,0-.19-.93-1.49.37-2.06a2.29,2.29,0,0,0,.56-1.68,10.49,10.49,0,0,1,0-2.43c.56-2.8,1.87-6.54,3.18-11.77l1.49-5.79c.56-2.06,1.12-4.11,2.05-6.91.56-1.49.75-2.62,1.31-3.18,1.49-3.55,2.8-5.23,5.6-6.17.19-.19.56-.19,1.31-.19a4.18,4.18,0,0,1,1.87.56,16.32,16.32,0,0,0,5,2.62c.56.19.56.75,1.12.93.19.19.56.19,1.5.19,0,.19,0,.37.19.37.93.19,2.24,2.24,3.74,6.17C594.1,28,595,29.63,595.59,30c.75.56,1.12,1.12,1.12,1.49.19.75,1.12,1.5,1.31,2.24l-.19,3.55c0,.56.19,1.31.37,2.62,0,.19.19.37.75.56a2.79,2.79,0,0,0-.56,2.62,22.06,22.06,0,0,1,.37,4.11,5.53,5.53,0,0,0,.37,1.87c.75,1.68.37,4.3.37,5.23,0,.56.19,1.49.37,2.8v1.31c0,1.31.56,3.92.75,5.42v1.87c.56.37.93.19,1.12-.37l.93-3.36a.69.69,0,0,1,.19-.56,33.33,33.33,0,0,0,3-8c.19-1.31,1.12-2.8,1.87-4.86A83.36,83.36,0,0,1,612,38.23l2.62-5h-.19A98.22,98.22,0,0,1,620.25,22a43.5,43.5,0,0,1,3.18-4.86l.93-.93a3.61,3.61,0,0,0,2.05-2.62l.75-.75v-.37A33.47,33.47,0,0,1,633,7a50.9,50.9,0,0,1,4.86-3.18,2.48,2.48,0,0,1,1.49-.56c.19,0,.75.19,1.68.37l3,.93,2.43.56a12.74,12.74,0,0,0,5.42.93c1.5,0,3,1.87,3.18,2.05l1.5,1.49a4.65,4.65,0,0,1,.75,4.11A12.09,12.09,0,0,0,656.31,17.68Zm-96,55.49c-.56.75-.75,1.31-.37,1.68Zm0-3.55h.19a.69.69,0,0,0-.19-.56Zm.56-1.49-.19-.19c0,.19,0,.19-.19.19l.19.19Zm.19-2.24v.56h.19l.19-.56Zm2.8-12.7h-.19l.19.19Zm.37-2.06c0,.19,0,.19-.19.19Zm3.74,12-.37-.19a.68.68,0,0,0,.19.56Zm0-1.49.56-.75-.37-.19-.19.93h-.19l.19.19Zm.37,6.54-.19.19c.19,0,.19,0,.19.19l.19-.19Zm1.49-4.67a.69.69,0,0,1-.56-.19c-.93,1.31-.56,3.36-.56,3.92Zm.75-11,.19-.56c0-.19,0-.19-.19-.19,0,.19-.19.37-.37.56Zm-.37,3.36c.19.19.37.19.75.19v-.19c-.37,0-.56,0-.75-.19Zm.37-5,.19-.75h-.19l-.19.75Zm.56,5.79h-.37l.19.37h.37Zm.75-.75h-.19c0,.19,0,.19.19.19Zm.37-5.23v-.19c0-.19,0-.19-.19-.19,0,.19,0,.19-.19.19Zm0-7.29v.19h.19v-.19Zm.56,1.31H573l-.19-.19Zm.37-5.23v.75h.37c0-.37,0-.56-.19-.75Zm.37,5.79h.19c-.19,0-.19,0-.19-.19,0,.19,0,.19-.19.19Zm3.55-9.9-.19.19h.19Zm5.79,16.44c-.37,0-.56,0-.75.19v.19c.37,0,.56,0,.75-.19Zm29.89,42.6-.19.37Zm12.14-65.39-.19-.19v.19Zm6.91,70.25v.37H632v-.37Zm1.49-40.73h.19l-.19.19Zm.56-6.91v.37h-.19Zm1.87-15.32h.19c0,.56,0,.75-.19.93Zm.75,42.41h-.19l.19.19Zm.56-43.16v-.19c-.19,0-.19,0-.19.19Zm-.19,40.92v.19h.19v-.19Zm.37-47.08c.56-.56.56-.93.19-1.31C637.26,28.14,637.26,28.51,637.26,29.26ZM639.31,112q1.12-1.4,0-2.24Zm.37-3.92v-.37h-.19v.37ZM641,127.16a3.09,3.09,0,0,0-.93-2.24c-.19.56-.37.93-.19,1.12Zm-.37.56h.19l-.19-.19c-.19,0-.19,0-.19.19Zm3.18,7.85-.75-3c-.75-1.68-1.12-2.8-.93-3.36a1.7,1.7,0,0,0-.56-.93.78.78,0,0,0-.56,1.12c0-.19,0-.19.19-.19,0-.19,0-.19.19-.19a.69.69,0,0,1,.19.56,2.82,2.82,0,0,0-.19,1.5,23.58,23.58,0,0,1,1.5,4.3c0,.19,0,.19.19.19Zm-.37-29.71-.37.56.19.37v-.19h.37a.68.68,0,0,1,.19-.56Zm.93,31.39-.19-.56H644v.56Zm.19-40.35v.37l.37-.19.19-.37c0-.19-.19-.19-.37-.19Zm0,22.61c.19,0,.19,0,.19-.19a1.39,1.39,0,0,1,.19-.93C645.48,119.13,645.29,119.5,644.54,119.5Zm.56-27.28h-.19v.19ZM646.22,123h-.56v-.19l.19-.19ZM647,82.51h-.37c.19-.19.19-.56.19-1.12Z" transform="translate(-8 -3.29)"/></svg>