<?xml version="1.0" encoding="utf-8"?>
<!-- Generator: Adobe Illustrator 20.1.0, SVG Export Plug-In . SVG Version: 6.00 Build 0)  -->
<svg version="1.1" id="logo" xmlns="http://www.w3.org/2000/svg" xmlns:xlink="http://www.w3.org/1999/xlink" x="0px" y="0px"
	 viewBox="0 0 124.5 50.4" style="enable-background:new 0 0 124.5 50.4;" xml:space="preserve">
<style type="text/css">
	.st0{fill:#FFFFFF;}
</style>
<path id="r1" class="st0" d="M28.2,12.5l-1,4.7c-0.1,0.5-0.6,0.9-1.1,0.8l0,0c-0.3,0-0.5,0-0.7,0c-2.2,0-3.9,0.7-4.9,2.2
	c-0.6,0.8-1.1,2.1-1.4,3.8l-1.9,9C17,33.6,16.5,34,15.8,34h-4.4l4.2-20c0.1-0.6,0.7-1.1,1.3-1.1h4.1c0,0,1.3,1.3,2.1,0.8
	c1.2-0.9,2.7-1.3,4.3-1.3c0.1,0,0.2,0,0.3,0C27.8,12.4,28,12.5,28.2,12.5z"/>
<path id="a" class="st0" d="M37.8,21.2c1.1-0.1,1.8-0.3,2.3-0.5c0.9-0.3,1.4-0.9,1.5-1.6c0.2-0.9,0-1.5-0.5-1.8
	c-0.5-0.3-1.4-0.5-2.5-0.5c-1.3,0-2.3,0.3-3,1c-0.3,0.3-0.6,0.7-0.8,1.2c-0.2,0.5-0.7,0.8-1.2,0.8h-4.5c0.5-1.8,1.4-3.4,2.5-4.5
	c1.9-1.9,4.6-2.8,8.1-2.8c2.3,0,4.3,0.5,5.9,1.4c1.6,0.9,2.1,2.6,1.6,5.2l-2.1,9.7c-0.1,0.7-0.3,1.5-0.5,2.4c-0.1,0.7-0.1,1.2,0,1.5
	c0,0.1,0.1,0.2,0.2,0.3c0.3,0.3,0.4,0.7,0.3,1.1l0,0.1h-6c-0.1-0.4-0.1-0.8-0.1-1.2c0-0.4,0.1-0.8,0.1-1.3c-0.9,0.8-2,1.5-3.1,2.1
	c-1.3,0.7-2.8,1-4.3,1c-1.9,0-3.4-0.5-4.4-1.6c-1-1.1-1.3-2.6-0.9-4.6c0.6-2.6,2-4.5,4.2-5.6c1.2-0.6,2.9-1.1,5.1-1.4L37.8,21.2z
	 M40.4,25c0.1-0.5-0.4-0.9-0.9-0.7c0,0,0,0,0,0c-0.4,0.1-0.9,0.3-1.5,0.4l-1.3,0.2c-1.2,0.2-2.1,0.5-2.7,0.8c-1,0.5-1.5,1.3-1.8,2.3
	c-0.2,0.9-0.1,1.6,0.3,2c0.4,0.4,1,0.6,1.8,0.6c1.2,0,2.4-0.3,3.5-1c1.1-0.7,1.9-2,2.4-3.8L40.4,25z"/>
<path id="p1" class="st0" d="M71.4,23.2c-0.8,3.7-2.2,6.5-4.3,8.5c-2.1,1.9-4.4,2.9-7.1,2.9c-1.7,0-3-0.4-3.9-1.3
	c-0.5-0.5-1-1.1-1.4-2l-2.1,9.9c-0.1,0.6-0.7,1.1-1.3,1.1H47L53,14c0.1-0.6,0.7-1.1,1.3-1.1h4.2c0,0,0.9,1.5,1.7,0.9
	c1.4-0.9,3-1.4,4.7-1.4c2.5,0,4.4,0.9,5.7,2.7C71.9,17,72.1,19.7,71.4,23.2z M62.7,17.3c-2,0-3.6,0.9-4.7,2.8
	c-0.6,1-1.1,2.3-1.4,3.8c-0.5,2.5-0.2,4.2,0.9,5.2C58.1,29.7,59,30,60,30c1.5,0,2.8-0.6,3.9-1.8c1.1-1.2,1.8-2.8,2.2-4.7
	c0.3-1.6,0.3-3.1-0.2-4.3C65.4,17.9,64.4,17.3,62.7,17.3z"/>
<path id="p2" class="st0" d="M95.6,23.2c-0.8,3.7-2.2,6.5-4.3,8.5c-2.1,1.9-4.4,2.9-7.1,2.9c-1.7,0-3-0.4-3.9-1.3
	c-0.5-0.5-1-1.1-1.4-2l-2.1,9.9c-0.1,0.6-0.7,1.1-1.3,1.1h-4.3l6-28.3c0.1-0.6,0.7-1.1,1.3-1.1h4.2c0,0,0.9,1.5,1.7,0.9
	c1.4-0.9,3-1.4,4.7-1.4c2.5,0,4.4,0.9,5.7,2.7C96.1,17,96.3,19.7,95.6,23.2z M86.9,17.3c-2,0-3.6,0.9-4.7,2.8
	c-0.6,1-1.1,2.3-1.4,3.8c-0.5,2.5-0.2,4.2,0.9,5.2c0.7,0.6,1.5,0.9,2.6,0.9c1.5,0,2.8-0.6,3.9-1.8c1.1-1.2,1.8-2.8,2.2-4.7
	c0.3-1.6,0.3-3.1-0.2-4.3C89.6,17.9,88.6,17.3,86.9,17.3z"/>
<path id="r2" class="st0" d="M114.1,12.5l-1,4.7c-0.1,0.5-0.6,0.9-1.1,0.8l0,0c-0.3,0-0.5,0-0.7,0c-2.2,0-3.9,0.7-4.9,2.2
	c-0.6,0.8-1.1,2.1-1.4,3.8l-1.9,9c-0.1,0.6-0.7,1.1-1.3,1.1h-4.4l4.2-20c0.1-0.6,0.7-1.1,1.3-1.1h4.1c0,0,1.3,1.3,2.1,0.8
	c1.2-0.9,2.7-1.3,4.3-1.3c0.1,0,0.2,0,0.3,0C113.7,12.4,113.8,12.5,114.1,12.5z"/>
</svg>
