<?xml version="1.0" encoding="utf-8"?>
<!-- Generator: Adobe Illustrator 19.2.1, SVG Export Plug-In . SVG Version: 6.00 Build 0)  -->
<svg version="1.1" id="Layer_1" xmlns="http://www.w3.org/2000/svg" xmlns:xlink="http://www.w3.org/1999/xlink" x="0px" y="0px"
	 viewBox="0 0 960 795.1" style="enable-background:new 0 0 960 795.1;" xml:space="preserve">
<style type="text/css">
	.st0{fill:#3E606F;}
	.st1{display:none;opacity:0.23;}
	.st2{display:inline;fill:#3E606F;}
</style>
<g id="Layer_1_1_">
	<g id="insignia_1_">
		<g id="insignia">
			<path class="st0" d="M347.4,538.5c-24.4,4.6-62.3,4.3-102.2-24.2c-1.8-1.3-4.3-0.9-5.7,1c-8.8,13.2-14.9,21.5-17.8,25.3
				c-0.9,1-0.3,2.7,1,3.1c14,4.6,78.8,23.8,127.2,2.2C354.3,544.1,352,537.6,347.4,538.5z"/>
			<path class="st0" d="M287.5,563.4c-16.4-0.1-36.5-3.4-53.5-8.1c-1.3-0.3-2.7,0.1-3.4,1.2c-9.3,13.6-15.7,21.7-18.8,25.3
				c-0.9,1-0.3,2.5,1,2.8c9.9,1.2,41.8,4,76.4-2.7C300.2,579.9,298.7,563.4,287.5,563.4z"/>
			<path class="st0" d="M525.5,451.9c-10.8-17.3-26.2-27.9-45.9-31.1c-37.4-6-72.6,19.4-78.6,56.8c0,0-6.4,43.2-52,52.2
				c-45.6,9.1-84.9-11.2-100.6-23.9c-2.8-2.4-3-6.7-0.1-9.1c3.7-3.1,9.6-7.9,18.8-14.6c22.6-16.6,40.1-33.2,54.7-57.1
				s18.2-51.9,18.2-51.9c14.3-89.4,98.6-150.5,188-136.1c68.7,11.1,121.7,62.8,135.4,127l0.3,2.1c30.5-126.7-47.5-252.4-174.4-282.9
				v-1.9C618.2,101.9,704.4,221,683.7,349.8L672,407.5c0,0-24.2,120-44.2,195.5c-1,4.2-9.6,7-10.6,11.1c-6.6,25-11.5,43.2-12.7,47.7
				c-3.6,13.9-22.4,29.6-30.5,35.9c-0.7,0.6-1.6-0.3-1.2-1c18.4-34.2-44.4-84.7-52.8-102.2c-9.7-20.5,3.1-60.1,12-93.4
				c5.1-19.3,0.9-31.4-2.4-40.8c-0.9-2.7,29.7,2.5,49.8,9.9c20,7.3,36.2,21.5,50.2,17.5c14-4,17.8-20,17.8-20s-22-13.7-48.3-22.7
				c-25.6-8.5-43.5-7.8-49.6-5.8C543.5,440.7,525.5,451.9,525.5,451.9z"/>
			<path class="st0" d="M411.7,584.5c-20.6-44.8-2.7-94.2,2.1-113.3c7.6-29.7,38-47.8,67.7-40.2s47.8,38,40.2,67.7
				c-7,27.2-34.8,112.7-12.9,167.7C514.8,681.2,438.4,642.6,411.7,584.5z"/>
		</g>
		<g id="shadows" class="st1">
			<path class="st2" d="M662,366.3c-4-0.1-8.5-5.4-9.4-9.3c-14.9-56.8-63.1-101.9-124.8-111.8c-83.4-13.5-162,43.6-175.3,127
				c0,0-3.7,31.4-23.5,59.3c-19.3,27.5-65.2,65.5-80.7,65.5c31.5-23.8,54.4-39.2,71.9-69c14-24.2,20-56.9,20-56.9
				c14.3-89.4,98.6-150.5,188-136.1c68.7,11.1,121.1,62.9,135,127l0.7,4.3L662,366.3z"/>
			<path class="st2" d="M657.6,462.2c-16.3-12.4-77.1-46.9-112.4-31.4c-8.1,3.6-15.1,11.4-19.7,21.1c0,0,11.8-7.5,24.2-13.2
				c13.2-3.1,29.7-0.9,55.1,7.8c26.3,8.8,42.7,20.8,42.7,20.8s-6.6,22.3-25.1,20.6c-14.2-1.9-22.9-10.8-42.9-18.1
				c-20-7.3-48.4-12.7-49.8-9.9c40.7,3.6,82.3,35,95.2,37.1c12.9,2.1,27.5-14.6,27.5-14.6L657.6,462.2z"/>
			<path class="st2" d="M347.4,538.5c-24.4,4.6-62.3,4.3-102.2-24.2c-1.8-1.3-4.3-0.9-5.7,1l-2.8,4.2c0,0,44.5,36,113.1,26.6
				C354.3,544.1,352,537.6,347.4,538.5z"/>
			<path class="st2" d="M287.5,563.4c-16.4-0.1-36.5-3.4-53.5-8.1c-1.3-0.3-2.7,0.1-3.4,1.2l-2.8,4.2c0,0,17.2,9.4,68.9,10.2
				C296.4,570.7,295.2,563.6,287.5,563.4z"/>
			<path class="st2" d="M411.7,584.5c-20.6-44.8-2.7-94.2,2.1-113.3c7.6-29.7,38-47.8,67.7-40.2c-54.8,3.4-60.8,42.1-68.4,71.9
				c-7,27.2-20.2,101.6,95.8,163.5C514.8,681.2,438.4,642.6,411.7,584.5z"/>
			<path class="st2" d="M617.4,612.6c-10.2,38.4-12,45.4-12.9,49.2c-3.6,13.9-22.4,29.6-30.5,35.9c-0.7,0.6-1.6-0.3-1.2-1
				c17.6-32.9,20.5-42,26.2-75.9C599.4,618.3,611.9,616.2,617.4,612.6z"/>
		</g>
	</g>
</g>
</svg>
